<svg width="127" height="127" viewBox="0 0 127 127" fill="none" xmlns="http://www.w3.org/2000/svg">
<path d="M46.5 4H12.5C7.80558 4 4 7.80558 4 12.5V46.5C4 51.1944 7.80558 55 12.5 55H46.5C51.1944 55 55 51.1944 55 46.5V12.5C55 7.80558 51.1944 4 46.5 4Z" stroke="white" stroke-width="8"/>
<path d="M114.5 4H80.5C75.8056 4 72 7.80558 72 12.5V46.5C72 51.1944 75.8056 55 80.5 55H114.5C119.194 55 123 51.1944 123 46.5V12.5C123 7.80558 119.194 4 114.5 4Z" stroke="white" stroke-width="8"/>
<path d="M114.5 72H80.5C75.8056 72 72 75.8056 72 80.5V114.5C72 119.194 75.8056 123 80.5 123H114.5C119.194 123 123 119.194 123 114.5V80.5C123 75.8056 119.194 72 114.5 72Z" stroke="white" stroke-width="8"/>
<path d="M46.5 72H12.5C7.80558 72 4 75.8056 4 80.5V114.5C4 119.194 7.80558 123 12.5 123H46.5C51.1944 123 55 119.194 55 114.5V80.5C55 75.8056 51.1944 72 46.5 72Z" stroke="white" stroke-width="8"/>
</svg>
