<svg width="732" height="406" viewBox="0 0 732 406" fill="none" xmlns="http://www.w3.org/2000/svg">
<mask id="mask0" mask-type="alpha" maskUnits="userSpaceOnUse" x="0" y="0" width="732" height="406">
<rect width="732" height="406" fill="#C4C4C4"/>
</mask>
<g mask="url(#mask0)">
<g filter="url(#filter0_d)">
<path d="M398.619 105.791C399.755 103.813 402.086 102.855 404.285 103.462L531.988 138.724C533.003 139.004 533.904 139.598 534.562 140.42L716.418 367.772C717.917 369.645 717.873 372.319 716.315 374.143L701.073 391.987C699.566 393.752 697.042 394.247 694.979 393.183L604.91 346.705C604.463 346.475 604.055 346.179 603.697 345.827L387.285 133.022C385.663 131.427 385.322 128.939 386.455 126.966L398.619 105.791Z" fill="#E0720D"/>
<path d="M384.268 130.065C381.127 126.303 384.712 120.736 389.437 122.041L505.506 154.09C506.486 154.361 507.361 154.924 508.013 155.705L700.441 386.149C703.583 389.911 699.997 395.478 695.272 394.173L579.204 362.125C578.224 361.854 577.349 361.291 576.697 360.51L384.268 130.065Z" fill="#E58718"/>
</g>
<g filter="url(#filter1_d)">
<path d="M313.227 105.791C314.364 103.813 316.695 102.855 318.894 103.462L446.606 138.726C447.615 139.005 448.512 139.593 449.169 140.408L630.575 365.491C632.003 367.263 632.055 369.776 630.7 371.605L615.543 392.067C614.079 394.044 611.393 394.661 609.212 393.523L519.506 346.703C519.068 346.474 518.666 346.182 518.314 345.836L301.893 133.022C300.271 131.427 299.93 128.939 301.063 126.966L313.227 105.791Z" fill="#E0720D"/>
<path d="M298.877 130.065C295.735 126.303 299.321 120.736 304.046 122.041L420.114 154.09C421.095 154.361 421.969 154.924 422.621 155.705L615.05 386.149C618.191 389.911 614.606 395.478 609.881 394.173L493.813 362.125C492.832 361.854 491.958 361.291 491.306 360.51L298.877 130.065Z" fill="#E58718"/>
<path d="M528.653 331.441C533.855 338.75 539.612 343.455 543.986 340.342C548.36 337.229 544.178 330.625 538.976 323.316C533.775 316.007 527.873 312.059 523.499 315.172C519.124 318.285 523.451 324.132 528.653 331.441Z" fill="white"/>
</g>
<g filter="url(#filter2_d)">
<path d="M216.012 100.537C217.148 98.5587 219.48 97.6005 221.678 98.2077L349.394 133.472C350.401 133.751 351.296 134.337 351.953 135.151L536.985 364.266C538.67 366.353 538.408 369.397 536.393 371.166L518.061 387.253C516.516 388.608 514.299 388.881 512.472 387.939L422.304 341.451C421.857 341.221 421.448 340.924 421.089 340.572L204.678 127.767C203.056 126.172 202.715 123.684 203.848 121.712L216.012 100.537Z" fill="#E0720D"/>
<path d="M201.662 124.811C198.52 121.048 202.106 115.482 206.831 116.786L322.899 148.835C323.88 149.106 324.754 149.669 325.406 150.45L517.835 380.894C520.976 384.656 517.391 390.223 512.666 388.919L396.598 356.87C395.617 356.599 394.742 356.036 394.09 355.255L201.662 124.811Z" fill="#E58718"/>
<path d="M331.734 202.348C336.203 209.723 341.537 214.55 346.359 211.629C351.18 208.707 347.671 202.061 343.202 194.686C338.733 187.311 333.164 183.224 328.343 186.145C323.521 189.067 327.265 194.972 331.734 202.348Z" fill="white"/>
<path d="M431.438 326.187C436.64 333.496 442.397 338.2 446.771 335.087C451.145 331.974 446.963 325.37 441.761 318.061C436.559 310.752 430.658 306.804 426.283 309.917C421.909 313.03 426.236 318.877 431.438 326.187Z" fill="white"/>
<path d="M284.61 195.788C289.282 202.466 292.95 207.964 297.722 204.625C302.494 201.287 298.804 195.214 294.132 188.536C289.46 181.857 285.575 177.102 280.803 180.441C276.031 183.779 279.938 189.109 284.61 195.788Z" fill="white"/>
<path d="M384.295 265.759C388.791 272.921 392.315 278.804 397.173 275.754C402.032 272.703 398.502 266.232 394.006 259.07C389.51 251.908 385.75 246.767 380.892 249.817C376.033 252.867 379.799 258.597 384.295 265.759Z" fill="white"/>
</g>
<g filter="url(#filter3_d)">
<path d="M133.387 62.8545C134.743 61.0201 137.168 60.336 139.283 61.1917L262.091 110.887C263.067 111.282 263.894 111.975 264.453 112.867L421.351 363.272C422.815 365.609 422.111 368.689 419.778 370.158L399.767 382.758C398.086 383.816 395.938 383.779 394.295 382.663L310.63 325.864C310.221 325.586 309.856 325.25 309.546 324.866L119 88.6031C117.572 86.8326 117.519 84.3214 118.871 82.4922L133.387 62.8545Z" fill="#E0720D"/>
<path d="M116.343 85.3196C113.654 81.2213 117.856 76.1033 122.399 77.9419L234.019 123.109C234.962 123.491 235.766 124.151 236.324 125.002L401.012 376.022C403.701 380.12 399.499 385.238 394.956 383.4L283.336 338.232C282.393 337.851 281.589 337.191 281.031 336.34L116.343 85.3196Z" fill="#E58718"/>
<path d="M236.649 177.282C240.241 185.122 244.986 190.53 250.111 188.182C255.236 185.834 252.514 178.828 248.921 170.989C245.329 163.149 240.266 158.45 235.141 160.798C230.016 163.146 233.057 169.443 236.649 177.282Z" fill="white"/>
<path d="M321.47 311.753C325.798 319.611 330.977 324.946 335.68 322.356C340.383 319.766 336.987 312.726 332.659 304.867C328.331 297.009 322.921 292.409 318.219 295C313.516 297.59 317.142 303.895 321.47 311.753Z" fill="white"/>
<path d="M190.59 165.354C194.464 172.525 197.477 178.407 202.601 175.639C207.724 172.871 204.757 166.414 200.883 159.244C197.009 152.073 193.695 146.903 188.571 149.671C183.447 152.439 186.716 158.183 190.59 165.354Z" fill="white"/>
<path d="M270.31 291.696C273.954 299.327 276.778 305.575 281.955 303.103C287.132 300.631 284.369 293.797 280.725 286.166C277.081 278.535 273.937 272.996 268.76 275.468C263.583 277.94 266.666 284.064 270.31 291.696Z" fill="white"/>
</g>
<g filter="url(#filter4_d)">
<path d="M152.519 63.6323C152.513 61.626 151.308 59.8177 149.459 59.0393L43.835 14.5745C42.9443 14.1996 41.964 14.0908 41.0127 14.2613L13.2853 19.2318C10.8288 19.6722 9.07314 21.8565 9.17139 24.3502L21.3392 333.183C21.4084 334.94 22.3958 336.532 23.9394 337.375L121.805 390.802C123.187 391.556 124.843 391.616 126.275 390.962L150.544 379.895C152.331 379.08 153.475 377.294 153.469 375.33L152.519 63.6323Z" fill="#E0720D"/>
<path d="M127.862 74.8654C127.862 72.9057 126.717 71.1267 124.933 70.3147L14.0715 19.8467C10.7608 18.3395 6.99994 20.7597 6.99994 24.3973V336.74C6.99994 338.699 8.14476 340.478 9.92833 341.29L120.79 391.758C124.101 393.266 127.862 390.845 127.862 387.208V74.8654Z" fill="#E58718"/>
<path d="M85.4764 128.98C85.127 137.596 87.4832 144.591 94.6931 144.883C101.903 145.176 102.774 137.702 103.123 129.086C103.473 120.47 100.348 113.956 93.1386 113.664C85.9287 113.372 85.8259 120.364 85.4764 128.98Z" fill="white"/>
<path d="M54.0161 202.596C53.7149 210.022 56.1097 216.066 63.3196 216.358C70.5295 216.65 71.3584 210.212 71.6595 202.786C71.9607 195.36 68.8007 189.727 61.5908 189.434C54.3809 189.142 54.3172 195.17 54.0161 202.596Z" fill="white"/>
<path d="M78.4958 311.984C78.1323 320.948 80.4772 328.22 87.6871 328.513C94.897 328.805 95.7802 321.029 96.1437 312.065C96.5072 303.102 93.3934 296.331 86.1835 296.039C78.9736 295.746 78.8593 303.02 78.4958 311.984Z" fill="white"/>
<path d="M34.1222 109.885C33.7919 118.029 33.3437 124.624 40.5536 124.916C47.7635 125.208 48.6177 118.146 48.948 110.002C49.2782 101.859 48.9595 95.7172 41.7496 95.4248C34.5397 95.1324 34.4524 101.742 34.1222 109.885Z" fill="white"/>
<path d="M26.5074 283.039C26.1647 291.489 25.7065 298.331 32.9164 298.624C40.1263 298.916 40.9913 291.588 41.334 283.138C41.6766 274.689 41.3672 268.318 34.1573 268.025C26.9474 267.733 26.8501 274.59 26.5074 283.039Z" fill="white"/>
</g>
</g>
<defs>
<filter id="filter0_d" x="378.152" y="42.0627" width="361.243" height="398.128" filterUnits="userSpaceOnUse" color-interpolation-filters="sRGB">
<feFlood flood-opacity="0" result="BackgroundImageFix"/>
<feColorMatrix in="SourceAlpha" type="matrix" values="0 0 0 0 0 0 0 0 0 0 0 0 0 0 0 0 0 0 127 0" result="hardAlpha"/>
<feOffset dx="6" dy="-7"/>
<feGaussianBlur stdDeviation="2"/>
<feColorMatrix type="matrix" values="0 0 0 0 0 0 0 0 0 0 0 0 0 0 0 0 0 0 0.25 0"/>
<feBlend mode="normal" in2="BackgroundImageFix" result="effect1_dropShadow"/>
<feBlend mode="normal" in="SourceGraphic" in2="effect1_dropShadow" result="shape"/>
</filter>
<filter id="filter1_d" x="297.692" y="92.2815" width="343.99" height="302.086" filterUnits="userSpaceOnUse" color-interpolation-filters="sRGB">
<feFlood flood-opacity="0" result="BackgroundImageFix"/>
<feColorMatrix in="SourceAlpha" type="matrix" values="0 0 0 0 0 0 0 0 0 0 0 0 0 0 0 0 0 0 127 0" result="hardAlpha"/>
<feOffset dx="6" dy="-7"/>
<feGaussianBlur stdDeviation="2"/>
<feColorMatrix type="matrix" values="0 0 0 0 0 0 0 0 0 0 0 0 0 0 0 0 0 0 0.25 0"/>
<feBlend mode="normal" in2="BackgroundImageFix" result="effect1_dropShadow"/>
<feBlend mode="normal" in="SourceGraphic" in2="effect1_dropShadow" result="shape"/>
</filter>
<filter id="filter2_d" x="195.545" y="59.7686" width="352.549" height="375.167" filterUnits="userSpaceOnUse" color-interpolation-filters="sRGB">
<feFlood flood-opacity="0" result="BackgroundImageFix"/>
<feColorMatrix in="SourceAlpha" type="matrix" values="0 0 0 0 0 0 0 0 0 0 0 0 0 0 0 0 0 0 127 0" result="hardAlpha"/>
<feOffset dx="6" dy="-7"/>
<feGaussianBlur stdDeviation="2"/>
<feColorMatrix type="matrix" values="0 0 0 0 0 0 0 0 0 0 0 0 0 0 0 0 0 0 0.25 0"/>
<feBlend mode="normal" in2="BackgroundImageFix" result="effect1_dropShadow"/>
<feBlend mode="normal" in="SourceGraphic" in2="effect1_dropShadow" result="shape"/>
</filter>
<filter id="filter3_d" x="110.413" y="27.0063" width="321.701" height="396.329" filterUnits="userSpaceOnUse" color-interpolation-filters="sRGB">
<feFlood flood-opacity="0" result="BackgroundImageFix"/>
<feColorMatrix in="SourceAlpha" type="matrix" values="0 0 0 0 0 0 0 0 0 0 0 0 0 0 0 0 0 0 127 0" result="hardAlpha"/>
<feOffset dx="6" dy="-7"/>
<feGaussianBlur stdDeviation="2"/>
<feColorMatrix type="matrix" values="0 0 0 0 0 0 0 0 0 0 0 0 0 0 0 0 0 0 0.25 0"/>
<feBlend mode="normal" in2="BackgroundImageFix" result="effect1_dropShadow"/>
<feBlend mode="normal" in="SourceGraphic" in2="effect1_dropShadow" result="shape"/>
</filter>
<filter id="filter4_d" x="7" y="3.18286" width="156.469" height="389.031" filterUnits="userSpaceOnUse" color-interpolation-filters="sRGB">
<feFlood flood-opacity="0" result="BackgroundImageFix"/>
<feColorMatrix in="SourceAlpha" type="matrix" values="0 0 0 0 0 0 0 0 0 0 0 0 0 0 0 0 0 0 127 0" result="hardAlpha"/>
<feOffset dx="6" dy="-7"/>
<feGaussianBlur stdDeviation="2"/>
<feColorMatrix type="matrix" values="0 0 0 0 0 0 0 0 0 0 0 0 0 0 0 0 0 0 0.25 0"/>
<feBlend mode="normal" in2="BackgroundImageFix" result="effect1_dropShadow"/>
<feBlend mode="normal" in="SourceGraphic" in2="effect1_dropShadow" result="shape"/>
</filter>
</defs>
</svg>
