<svg width="562" height="451" viewBox="0 0 562 451" fill="none" xmlns="http://www.w3.org/2000/svg">
<g filter="url(#filter0_d)">
<g filter="url(#filter1_i)">
<path d="M43.2942 258.753L101.869 203.574L54.3299 344.493L0 402.218L43.2942 258.753Z" fill="#E58718"/>
</g>
<rect x="42.4456" y="257.904" width="314.095" height="178.27" fill="#E58718"/>
<path d="M354.843 257.904L406.626 202.726V380.996L354.843 436.175V257.904Z" fill="#269EAE"/>
<g filter="url(#filter2_i)">
<path d="M101.869 203.574L406.626 202.726L354.843 257.904H42.4456L101.869 203.574Z" fill="#269EAE"/>
</g>
<path d="M488.309 209.279L546.695 145L406.626 202.726L352.296 260.451L488.309 209.279Z" fill="#E58718"/>
</g>
<g filter="url(#filter3_d)">
<path d="M276.975 242.827C276.975 242.827 281.535 198.278 294.918 175.541C308.301 152.804 323.694 137.071 330.033 132.527C344.506 122.154 358.292 56.4803 358.292 56.4803C358.292 56.4803 348.98 111.998 360.338 128.623C371.696 145.249 428.222 173.459 428.222 173.459C428.222 173.459 363.142 154.235 335.437 163.963C302.833 175.411 276.975 242.827 276.975 242.827Z" fill="#E58718"/>
<circle cx="408.082" cy="99.9638" r="32.9658" transform="rotate(19.0643 408.082 99.9638)" fill="#269EAE"/>
</g>
<g filter="url(#filter4_d)">
<path d="M189.881 149.923C189.881 149.923 195.242 121.008 191.012 104.206C186.781 87.405 179.99 74.6451 176.835 70.6098C169.632 61.3981 173.084 17.4659 173.084 17.4659C173.084 17.4659 168.69 54.1715 158.46 62.5486C148.23 70.9256 107.395 78.254 107.395 78.254C107.395 78.254 151.959 78.1696 167.619 89.4206C186.048 102.661 189.881 149.923 189.881 149.923Z" fill="#E58718"/>
<circle r="21.6486" transform="matrix(-0.998877 0.0473892 0.0473892 0.998877 133.671 35.6639)" fill="#269EAE"/>
</g>
<g filter="url(#filter5_d)">
<path d="M247.252 80.7822C247.252 80.7822 244.159 66.8019 245.936 58.5557C247.713 50.3094 250.804 43.9868 252.272 41.9705C255.623 37.3676 253.207 16.0483 253.207 16.0483C253.207 16.0483 255.96 33.8354 261.078 37.7403C266.196 41.6452 286.189 44.5275 286.189 44.5275C286.189 44.5275 264.503 45.2325 257.072 50.9693C248.326 57.7207 247.252 80.7822 247.252 80.7822Z" fill="#E58718"/>
<circle cx="272.69" cy="24.2434" r="10.5403" transform="rotate(0.745509 272.69 24.2434)" fill="#269EAE"/>
</g>
<g filter="url(#filter6_d)">
<path d="M186.145 244.106C186.145 244.106 183.214 199.42 170.669 176.21C158.125 153 143.316 136.715 137.146 131.943C123.062 121.049 111.681 54.9166 111.681 54.9166C111.681 54.9166 118.961 110.737 107.004 126.937C95.0473 143.137 37.5299 169.266 37.5299 169.266C37.5299 169.266 103.268 152.429 130.599 163.161C162.763 175.791 186.145 244.106 186.145 244.106Z" fill="#269EAE"/>
<circle r="32.9658" transform="matrix(-0.95644 0.29193 0.29193 0.95644 60.3381 96.5543)" fill="#E58718"/>
</g>
<g filter="url(#filter7_d)">
<path d="M282.891 149.319C282.891 149.319 276.539 120.605 280.189 103.668C283.839 86.7311 290.188 73.7452 293.202 69.6038C300.084 60.1499 295.123 16.3623 295.123 16.3623C295.123 16.3623 300.777 52.8952 311.289 60.9155C321.801 68.9358 362.864 74.8556 362.864 74.8556C362.864 74.8556 318.323 76.3037 303.06 88.0865C285.097 101.953 282.891 149.319 282.891 149.319Z" fill="#269EAE"/>
<circle cx="335.138" cy="33.1941" r="21.6486" transform="rotate(0.745509 335.138 33.1941)" fill="#E58718"/>
</g>
<g filter="url(#filter8_d)">
<path d="M223.911 81.9421C223.911 81.9421 226.521 67.8637 224.461 59.6835C222.402 51.5032 219.095 45.2907 217.559 43.326C214.052 38.841 215.733 17.4513 215.733 17.4513C215.733 17.4513 213.593 35.3225 208.612 39.4011C203.632 43.4797 183.75 47.0478 183.75 47.0478C183.75 47.0478 205.447 47.0067 213.072 52.4846C222.045 58.9311 223.911 81.9421 223.911 81.9421Z" fill="#269EAE"/>
<circle r="10.5403" transform="matrix(-0.998877 0.0473892 0.0473892 0.998877 196.543 26.3114)" fill="#E58718"/>
</g>
<defs>
<filter id="filter0_d" x="0" y="145" width="561.695" height="305.175" filterUnits="userSpaceOnUse" color-interpolation-filters="sRGB">
<feFlood flood-opacity="0" result="BackgroundImageFix"/>
<feColorMatrix in="SourceAlpha" type="matrix" values="0 0 0 0 0 0 0 0 0 0 0 0 0 0 0 0 0 0 127 0" result="hardAlpha"/>
<feOffset dx="11" dy="10"/>
<feGaussianBlur stdDeviation="2"/>
<feColorMatrix type="matrix" values="0 0 0 0 0 0 0 0 0 0 0 0 0 0 0 0 0 0 0.25 0"/>
<feBlend mode="normal" in2="BackgroundImageFix" result="effect1_dropShadow"/>
<feBlend mode="normal" in="SourceGraphic" in2="effect1_dropShadow" result="shape"/>
</filter>
<filter id="filter1_i" x="-4" y="203.574" width="105.869" height="202.644" filterUnits="userSpaceOnUse" color-interpolation-filters="sRGB">
<feFlood flood-opacity="0" result="BackgroundImageFix"/>
<feBlend mode="normal" in="SourceGraphic" in2="BackgroundImageFix" result="shape"/>
<feColorMatrix in="SourceAlpha" type="matrix" values="0 0 0 0 0 0 0 0 0 0 0 0 0 0 0 0 0 0 127 0" result="hardAlpha"/>
<feOffset dx="-17" dy="79"/>
<feGaussianBlur stdDeviation="2"/>
<feComposite in2="hardAlpha" operator="arithmetic" k2="-1" k3="1"/>
<feColorMatrix type="matrix" values="0 0 0 0 0 0 0 0 0 0 0 0 0 0 0 0 0 0 0.09 0"/>
<feBlend mode="normal" in2="shape" result="effect1_innerShadow"/>
</filter>
<filter id="filter2_i" x="42.4456" y="199.726" width="364.18" height="58.1789" filterUnits="userSpaceOnUse" color-interpolation-filters="sRGB">
<feFlood flood-opacity="0" result="BackgroundImageFix"/>
<feBlend mode="normal" in="SourceGraphic" in2="BackgroundImageFix" result="shape"/>
<feColorMatrix in="SourceAlpha" type="matrix" values="0 0 0 0 0 0 0 0 0 0 0 0 0 0 0 0 0 0 127 0" result="hardAlpha"/>
<feOffset dy="-3"/>
<feGaussianBlur stdDeviation="5.5"/>
<feComposite in2="hardAlpha" operator="arithmetic" k2="-1" k3="1"/>
<feColorMatrix type="matrix" values="0 0 0 0 0 0 0 0 0 0 0 0 0 0 0 0 0 0 0.13 0"/>
<feBlend mode="normal" in2="shape" result="effect1_innerShadow"/>
</filter>
<filter id="filter3_d" x="272.975" y="56.4802" width="172.081" height="196.347" filterUnits="userSpaceOnUse" color-interpolation-filters="sRGB">
<feFlood flood-opacity="0" result="BackgroundImageFix"/>
<feColorMatrix in="SourceAlpha" type="matrix" values="0 0 0 0 0 0 0 0 0 0 0 0 0 0 0 0 0 0 127 0" result="hardAlpha"/>
<feOffset dy="6"/>
<feGaussianBlur stdDeviation="2"/>
<feColorMatrix type="matrix" values="0 0 0 0 0 0 0 0 0 0 0 0 0 0 0 0 0 0 0.37 0"/>
<feBlend mode="normal" in2="BackgroundImageFix" result="effect1_dropShadow"/>
<feBlend mode="normal" in="SourceGraphic" in2="effect1_dropShadow" result="shape"/>
</filter>
<filter id="filter4_d" x="103.395" y="14.0149" width="93.2426" height="145.908" filterUnits="userSpaceOnUse" color-interpolation-filters="sRGB">
<feFlood flood-opacity="0" result="BackgroundImageFix"/>
<feColorMatrix in="SourceAlpha" type="matrix" values="0 0 0 0 0 0 0 0 0 0 0 0 0 0 0 0 0 0 127 0" result="hardAlpha"/>
<feOffset dy="6"/>
<feGaussianBlur stdDeviation="2"/>
<feColorMatrix type="matrix" values="0 0 0 0 0 0 0 0 0 0 0 0 0 0 0 0 0 0 0.37 0"/>
<feBlend mode="normal" in2="BackgroundImageFix" result="effect1_dropShadow"/>
<feBlend mode="normal" in="SourceGraphic" in2="effect1_dropShadow" result="shape"/>
</filter>
<filter id="filter5_d" x="241.385" y="13.7031" width="48.8033" height="77.0791" filterUnits="userSpaceOnUse" color-interpolation-filters="sRGB">
<feFlood flood-opacity="0" result="BackgroundImageFix"/>
<feColorMatrix in="SourceAlpha" type="matrix" values="0 0 0 0 0 0 0 0 0 0 0 0 0 0 0 0 0 0 127 0" result="hardAlpha"/>
<feOffset dy="6"/>
<feGaussianBlur stdDeviation="2"/>
<feColorMatrix type="matrix" values="0 0 0 0 0 0 0 0 0 0 0 0 0 0 0 0 0 0 0.37 0"/>
<feBlend mode="normal" in2="BackgroundImageFix" result="effect1_dropShadow"/>
<feBlend mode="normal" in="SourceGraphic" in2="effect1_dropShadow" result="shape"/>
</filter>
<filter id="filter6_d" x="2.47949" y="54.9165" width="211.419" height="244.66" filterUnits="userSpaceOnUse" color-interpolation-filters="sRGB">
<feFlood flood-opacity="0" result="BackgroundImageFix"/>
<feColorMatrix in="SourceAlpha" type="matrix" values="0 0 0 0 0 0 0 0 0 0 0 0 0 0 0 0 0 0 127 0" result="hardAlpha"/>
<feOffset dy="6"/>
<feGaussianBlur stdDeviation="2"/>
<feColorMatrix type="matrix" values="0 0 0 0 0 0 0 0 0 0 0 0 0 0 0 0 0 0 0.37 0"/>
<feBlend mode="normal" in2="BackgroundImageFix" result="effect1_dropShadow"/>
<feBlend mode="normal" in="SourceGraphic" in2="effect1_dropShadow" result="shape"/>
</filter>
<filter id="filter7_d" x="275.058" y="11.5454" width="91.8058" height="147.774" filterUnits="userSpaceOnUse" color-interpolation-filters="sRGB">
<feFlood flood-opacity="0" result="BackgroundImageFix"/>
<feColorMatrix in="SourceAlpha" type="matrix" values="0 0 0 0 0 0 0 0 0 0 0 0 0 0 0 0 0 0 127 0" result="hardAlpha"/>
<feOffset dy="6"/>
<feGaussianBlur stdDeviation="2"/>
<feColorMatrix type="matrix" values="0 0 0 0 0 0 0 0 0 0 0 0 0 0 0 0 0 0 0.37 0"/>
<feBlend mode="normal" in2="BackgroundImageFix" result="effect1_dropShadow"/>
<feBlend mode="normal" in="SourceGraphic" in2="effect1_dropShadow" result="shape"/>
</filter>
<filter id="filter8_d" x="179.75" y="15.771" width="49.5029" height="76.171" filterUnits="userSpaceOnUse" color-interpolation-filters="sRGB">
<feFlood flood-opacity="0" result="BackgroundImageFix"/>
<feColorMatrix in="SourceAlpha" type="matrix" values="0 0 0 0 0 0 0 0 0 0 0 0 0 0 0 0 0 0 127 0" result="hardAlpha"/>
<feOffset dy="6"/>
<feGaussianBlur stdDeviation="2"/>
<feColorMatrix type="matrix" values="0 0 0 0 0 0 0 0 0 0 0 0 0 0 0 0 0 0 0.37 0"/>
<feBlend mode="normal" in2="BackgroundImageFix" result="effect1_dropShadow"/>
<feBlend mode="normal" in="SourceGraphic" in2="effect1_dropShadow" result="shape"/>
</filter>
</defs>
</svg>
