<svg
    width="94"
    height="94"
    viewBox="0 0 121 94"
    fill="none"
    xmlns="http://www.w3.org/2000/svg"
>
    <ellipse
    cx="67.2204"
    cy="37.8243"
    rx="53.7797"
    ry="37.6458"
    fill="#E58718"
    />
    <g filter="url(#filter0_d)">
    <path
        d="M58.5678 68.5L37.6535 52.0732C37.6535 52.0732 32.2755 68.8015 26.3 76.5696C20.3244 84.3376 5.38564 90.3133 5.38564 90.3133C5.38564 90.3133 44.8241 92.1059 67.5311 86.7279C90.2381 81.35 58.5678 68.5 58.5678 68.5Z"
        fill="#39AFBF"
    />
    <path
        d="M112.348 50.8748C112.348 71.666 88.2695 88.5206 58.5678 88.5206C28.8661 88.5206 4.78809 71.666 4.78809 50.8748C4.78809 30.0836 28.8661 13.229 58.5678 13.229C88.2695 13.229 112.348 30.0836 112.348 50.8748Z"
        fill="#39AFBF"
    />
    </g>
    <circle cx="32.2753" cy="51.4724" r="5.97552" fill="white" />
    <circle cx="59.7629" cy="51.4724" r="5.97552" fill="white" />
    <circle cx="87.2502" cy="51.4724" r="5.97552" fill="white" />
    <defs>
    <filter
        id="filter0_d"
        x="0.788086"
        y="8.229"
        width="115.559"
        height="85.3711"
        filterUnits="userSpaceOnUse"
        color-interpolation-filters="sRGB"
    >
        <feFlood flood-opacity="0" result="BackgroundImageFix" />
        <feColorMatrix
        in="SourceAlpha"
        type="matrix"
        values="0 0 0 0 0 0 0 0 0 0 0 0 0 0 0 0 0 0 127 0"
        />
        <feOffset dy="-1" />
        <feGaussianBlur stdDeviation="2" />
        <feColorMatrix
        type="matrix"
        values="0 0 0 0 0 0 0 0 0 0 0 0 0 0 0 0 0 0 0.25 0"
        />
        <feBlend
        mode="normal"
        in2="BackgroundImageFix"
        result="effect1_dropShadow"
        />
        <feBlend
        mode="normal"
        in="SourceGraphic"
        in2="effect1_dropShadow"
        result="shape"
        />
    </filter>
    </defs>
</svg>