<svg width="382" height="427" viewBox="0 0 382 427" fill="none" xmlns="http://www.w3.org/2000/svg">
<g filter="url(#filter0_d)">
<rect x="10" width="371" height="418" rx="15" fill="#4A4A4A"/>
</g>
<path d="M53.64 44.2L51.96 63H46.8L49.32 36.36H56.52L63.32 55.48L69.92 36.36H77.12L79.56 63H74.36L72.52 44.28L65.48 63.28L60.72 63.72L53.64 44.2ZM90.8853 63.56C88.6986 63.56 86.9786 62.8933 85.7253 61.56C84.472 60.2267 83.8453 58.4 83.8453 56.08V42.4H89.4853V55.16C89.4853 56.2533 89.752 57.1067 90.2853 57.72C90.8186 58.3067 91.5386 58.6 92.4453 58.6C93.352 58.6 94.2186 58.3067 95.0453 57.72C95.8986 57.1333 96.6053 56.3467 97.1653 55.36V42.4H102.805V63H97.1653V60.28C96.392 61.32 95.4986 62.1333 94.4853 62.72C93.4986 63.28 92.2986 63.56 90.8853 63.56ZM107.071 58.16H110.711V38.6H107.271V33.8H116.351V58.16H119.991V63H107.071V58.16ZM130.668 63.6C128.748 63.6 127.254 63.12 126.188 62.16C125.148 61.1733 124.628 59.7867 124.628 58V47.24H121.428V42.4H124.628V38C126.521 37.68 128.388 37.44 130.228 37.28V42.4H135.428V47.24H130.228V56.96C130.228 57.52 130.388 57.9467 130.708 58.24C131.054 58.5333 131.534 58.68 132.148 58.68C132.894 58.68 133.748 58.5067 134.708 58.16L135.948 62.4C134.241 63.2 132.481 63.6 130.668 63.6ZM142.344 33.8H148.784V39H142.344V33.8ZM139.224 58.16H143.064V47.24H139.224V42.4H148.704V58.16H152.144V63H139.224V58.16ZM155.881 42.4H161.361L161.241 45.08H161.401C162.095 44.0133 162.935 43.2 163.921 42.64C164.935 42.08 166.081 41.8 167.361 41.8C169.681 41.8 171.495 42.6933 172.801 44.48C174.135 46.24 174.801 48.7067 174.801 51.88C174.801 55.64 173.815 58.5333 171.841 60.56C169.895 62.56 167.108 63.56 163.481 63.56C163.028 63.56 162.348 63.5333 161.441 63.48V71.72H155.881V42.4ZM164.041 58.64C165.721 58.64 166.988 58.0933 167.841 57C168.721 55.9067 169.161 54.3067 169.161 52.2C169.161 50.4933 168.881 49.16 168.321 48.2C167.788 47.2133 167.041 46.72 166.081 46.72C165.228 46.72 164.401 47.0933 163.601 47.84C162.801 48.56 162.081 49.6 161.441 50.96V58.28C162.348 58.52 163.215 58.64 164.041 58.64ZM177.266 58.16H180.906V38.6H177.466V33.8H186.546V58.16H190.186V63H177.266V58.16ZM199.38 63.6C197.247 63.6 195.554 62.6933 194.3 60.88C193.047 59.0667 192.42 56.6 192.42 53.48C192.42 49.6933 193.38 46.8133 195.3 44.84C197.22 42.84 199.98 41.84 203.58 41.84C205.607 41.84 207.98 42.16 210.7 42.8V63H205.34L205.46 59.72H205.3C204.607 60.9733 203.754 61.9333 202.74 62.6C201.754 63.2667 200.634 63.6 199.38 63.6ZM200.58 58.68C201.407 58.68 202.22 58.24 203.02 57.36C203.82 56.48 204.567 55.3067 205.26 53.84V47.12C204.407 46.88 203.554 46.76 202.7 46.76C201.1 46.76 199.887 47.3067 199.06 48.4C198.26 49.4933 197.86 51.1067 197.86 53.24C197.86 54.92 198.1 56.2533 198.58 57.24C199.06 58.2 199.727 58.68 200.58 58.68ZM219.075 71.96C217.848 71.96 216.568 71.6667 215.235 71.08L216.075 66.44C217.088 66.9467 217.941 67.2 218.635 67.2C219.461 67.2 220.075 66.9333 220.475 66.4C220.901 65.8667 221.355 64.9333 221.835 63.6L213.795 42.48L219.635 42L224.555 56.76L229.115 42.4H234.675C232.968 47.5733 231.168 52.6667 229.275 57.68C227.408 62.6933 225.955 66.1333 224.915 68C224.168 69.3333 223.328 70.32 222.395 70.96C221.488 71.6267 220.381 71.96 219.075 71.96ZM246.968 63.6C243.635 63.6 241.008 62.64 239.088 60.72C237.195 58.8 236.248 56.1333 236.248 52.72C236.248 50.5067 236.662 48.5867 237.488 46.96C238.315 45.3067 239.475 44.04 240.968 43.16C242.488 42.28 244.262 41.84 246.288 41.84C249.275 41.84 251.568 42.8 253.168 44.72C254.768 46.64 255.568 49.4133 255.568 53.04C255.568 53.6533 255.555 54.1067 255.528 54.4H241.928C242.195 55.8133 242.808 56.8933 243.768 57.64C244.728 58.36 246.022 58.72 247.648 58.72C248.635 58.72 249.662 58.6 250.728 58.36C251.795 58.0933 252.728 57.7467 253.528 57.32L254.448 61.84C253.382 62.4 252.195 62.8267 250.888 63.12C249.608 63.44 248.302 63.6 246.968 63.6ZM250.168 50.16C250.088 49.0133 249.688 48.1067 248.968 47.44C248.248 46.7467 247.288 46.4 246.088 46.4C244.942 46.4 243.995 46.7333 243.248 47.4C242.528 48.0667 242.075 48.9867 241.888 50.16H250.168ZM259.908 42.4H265.548V45.76H265.868C266.641 44.4 267.401 43.4 268.148 42.76C268.921 42.12 269.881 41.8 271.028 41.8C271.508 41.8 271.908 41.8533 272.228 41.96L271.628 48.04C270.934 47.8533 270.374 47.76 269.948 47.76C269.334 47.76 268.788 47.88 268.308 48.12C267.854 48.36 267.441 48.68 267.068 49.08C266.721 49.48 266.214 50.0933 265.548 50.92V63H259.908V42.4Z" fill="white"/>
<path d="M48.5 100.02C47.5533 100.02 46.8467 100.013 46.38 100V86.68C46.9533 86.6667 47.8 86.66 48.92 86.66C50.0533 86.66 50.9 86.6667 51.46 86.68C52.7667 86.6933 53.9 86.96 54.86 87.48C55.8333 87.9867 56.58 88.7133 57.1 89.66C57.6333 90.6067 57.9 91.7133 57.9 92.98C57.9 94.3667 57.5933 95.5867 56.98 96.64C56.38 97.6933 55.5267 98.5133 54.42 99.1C53.3267 99.6867 52.0533 99.9867 50.6 100C50.1333 100.013 49.4333 100.02 48.5 100.02ZM50.58 97.48C51.9267 97.48 52.9867 97.0867 53.76 96.3C54.5333 95.5133 54.92 94.4333 54.92 93.06C54.92 91.82 54.5867 90.8667 53.92 90.2C53.2667 89.5333 52.32 89.2 51.08 89.2H49.28V97.48H50.58ZM61.1914 85.4H64.4114V88H61.1914V85.4ZM59.6314 97.58H61.5514V92.12H59.6314V89.7H64.3714V97.58H66.0914V100H59.6314V97.58ZM70.9402 100.3C70.2868 100.3 69.6535 100.233 69.0402 100.1C68.4402 99.9667 67.9268 99.7867 67.5002 99.56L67.7602 97.16C68.2135 97.44 68.7135 97.6667 69.2602 97.84C69.8068 98.0133 70.3202 98.1 70.8002 98.1C71.2535 98.1 71.6335 98.02 71.9402 97.86C72.2468 97.6867 72.4002 97.44 72.4002 97.12C72.4002 96.8667 72.2935 96.6733 72.0802 96.54C71.8668 96.3933 71.4602 96.2133 70.8602 96L70.3202 95.8C69.7468 95.5867 69.2802 95.3867 68.9202 95.2C68.5602 95 68.2335 94.7 67.9402 94.3C67.6468 93.9 67.5002 93.3733 67.5002 92.72C67.5002 91.68 67.8868 90.8733 68.6602 90.3C69.4468 89.7133 70.4668 89.42 71.7202 89.42C72.7068 89.42 73.7468 89.6133 74.8402 90L74.4602 92.38C74.0735 92.1533 73.6335 91.9733 73.1402 91.84C72.6602 91.6933 72.2068 91.62 71.7802 91.62C71.3402 91.62 70.9868 91.6933 70.7202 91.84C70.4668 91.9867 70.3402 92.2 70.3402 92.48C70.3402 92.7467 70.4468 92.9467 70.6602 93.08C70.8735 93.2133 71.2335 93.3667 71.7402 93.54C72.1402 93.6867 72.3735 93.7733 72.4402 93.8C73.0002 94.0267 73.4668 94.2467 73.8402 94.46C74.2135 94.6733 74.5402 94.9933 74.8202 95.42C75.1002 95.8333 75.2402 96.3667 75.2402 97.02C75.2402 98.1133 74.8468 98.9333 74.0602 99.48C73.2735 100.027 72.2335 100.3 70.9402 100.3ZM82.0375 100.3C80.3308 100.3 79.0042 99.8467 78.0575 98.94C77.1242 98.0333 76.6575 96.7533 76.6575 95.1C76.6575 93.98 76.8775 92.9933 77.3175 92.14C77.7575 91.2733 78.3775 90.6067 79.1775 90.14C79.9775 89.66 80.9042 89.42 81.9575 89.42C82.4508 89.42 82.9642 89.48 83.4975 89.6C84.0442 89.7067 84.4642 89.8333 84.7575 89.98L84.2175 92.36C83.9108 92.2133 83.5708 92.1 83.1975 92.02C82.8375 91.9267 82.4975 91.88 82.1775 91.88C81.3508 91.88 80.6842 92.16 80.1775 92.72C79.6842 93.28 79.4375 94.02 79.4375 94.94C79.4375 95.8733 79.6908 96.5933 80.1975 97.1C80.7175 97.6067 81.4508 97.86 82.3975 97.86C83.0242 97.86 83.6975 97.74 84.4175 97.5L84.8375 99.78C83.9708 100.127 83.0375 100.3 82.0375 100.3ZM91.5092 100.3C90.4692 100.3 89.5492 100.073 88.7492 99.62C87.9626 99.1667 87.3492 98.5333 86.9092 97.72C86.4692 96.8933 86.2492 95.94 86.2492 94.86C86.2492 93.78 86.4626 92.8333 86.8892 92.02C87.3292 91.1933 87.9426 90.5533 88.7292 90.1C89.5292 89.6467 90.4492 89.42 91.4892 89.42C92.5292 89.42 93.4426 89.6467 94.2292 90.1C95.0292 90.54 95.6426 91.1667 96.0692 91.98C96.5092 92.7933 96.7292 93.7333 96.7292 94.8C96.7292 95.88 96.5092 96.84 96.0692 97.68C95.6426 98.5067 95.0292 99.1533 94.2292 99.62C93.4426 100.073 92.5359 100.3 91.5092 100.3ZM91.4892 97.86C92.2092 97.86 92.7826 97.5867 93.2092 97.04C93.6492 96.48 93.8692 95.7467 93.8692 94.84C93.8692 93.9333 93.6492 93.2133 93.2092 92.68C92.7826 92.1333 92.2092 91.86 91.4892 91.86C90.7692 91.86 90.1892 92.1333 89.7492 92.68C89.3226 93.2133 89.1092 93.9333 89.1092 94.84C89.1092 95.7467 89.3226 96.48 89.7492 97.04C90.1892 97.5867 90.7692 97.86 91.4892 97.86ZM98.8795 89.7H101.7V91.38H101.86C102.246 90.7 102.626 90.2 103 89.88C103.386 89.56 103.866 89.4 104.44 89.4C104.68 89.4 104.88 89.4267 105.04 89.48L104.74 92.52C104.393 92.4267 104.113 92.38 103.9 92.38C103.593 92.38 103.32 92.44 103.08 92.56C102.853 92.68 102.646 92.84 102.46 93.04C102.286 93.24 102.033 93.5467 101.7 93.96V100H98.8795V89.7ZM109.676 100.3C108.516 100.3 107.603 99.86 106.936 98.98C106.283 98.0867 105.956 96.8467 105.956 95.26C105.956 93.38 106.443 91.94 107.416 90.94C108.403 89.9267 109.803 89.42 111.616 89.42C111.843 89.42 112.183 89.4333 112.636 89.46V85.4H115.416V100H112.676L112.736 98.66H112.656C112.31 99.1933 111.883 99.6 111.376 99.88C110.883 100.16 110.316 100.3 109.676 100.3ZM110.316 97.84C110.743 97.84 111.156 97.66 111.556 97.3C111.956 96.9267 112.316 96.4 112.636 95.72V92.06C112.183 91.94 111.75 91.88 111.336 91.88C110.496 91.88 109.856 92.1533 109.416 92.7C108.99 93.2467 108.776 94.0467 108.776 95.1C108.776 95.9533 108.91 96.6267 109.176 97.12C109.456 97.6 109.836 97.84 110.316 97.84ZM122.103 86.68H125.003V97.48H129.803V100H122.103V86.68ZM132.91 85.4H136.13V88H132.91V85.4ZM131.35 97.58H133.27V92.12H131.35V89.7H136.09V97.58H137.81V100H131.35V97.58ZM139.679 89.7H142.439V91.48C142.866 90.7733 143.359 90.2533 143.919 89.92C144.479 89.5867 145.132 89.42 145.879 89.42C146.986 89.42 147.852 89.7533 148.479 90.42C149.106 91.0733 149.419 91.9867 149.419 93.16V100H146.599V93.6C146.599 93.0667 146.466 92.6533 146.199 92.36C145.932 92.0533 145.572 91.9 145.119 91.9C144.586 91.9 144.079 92.1 143.599 92.5C143.119 92.9 142.752 93.4067 142.499 94.02V100H139.679V89.7ZM154.94 95.52V100H152.12V85.38H154.94V93.46L158.16 89.7H161.5L157.38 94.32L161.72 99.88L158.66 100.3L154.94 95.52Z" fill="white"/>
<path d="M45 102H161.72V103H45V102Z" fill="white"/>
<rect x="9" y="126" width="373" height="54" fill="#6E6E6E"/>
<rect x="9" y="242" width="373" height="54" fill="#6E6E6E"/>
<rect x="9" y="358" width="373" height="54" fill="#6E6E6E"/>
<path d="M46.86 159.3C46.0867 159.3 45.38 159.16 44.74 158.88L45.5 156.46C45.9 156.673 46.2533 156.78 46.56 156.78C47.2267 156.78 47.56 156.367 47.56 155.54V145.68H50.36V155.78C50.36 156.86 50.04 157.72 49.4 158.36C48.7733 158.987 47.9267 159.3 46.86 159.3ZM56.0378 159.3C54.9711 159.3 54.1245 158.847 53.4978 157.94C52.8711 157.033 52.5578 155.8 52.5578 154.24C52.5578 152.347 53.0378 150.907 53.9978 149.92C54.9578 148.92 56.3378 148.42 58.1378 148.42C59.1511 148.42 60.3378 148.58 61.6978 148.9V159H59.0178L59.0778 157.36H58.9978C58.6511 157.987 58.2245 158.467 57.7178 158.8C57.2245 159.133 56.6645 159.3 56.0378 159.3ZM56.6378 156.84C57.0511 156.84 57.4578 156.62 57.8578 156.18C58.2578 155.74 58.6311 155.153 58.9778 154.42V151.06C58.5511 150.94 58.1245 150.88 57.6978 150.88C56.8978 150.88 56.2911 151.153 55.8778 151.7C55.4778 152.247 55.2778 153.053 55.2778 154.12C55.2778 154.96 55.3978 155.627 55.6378 156.12C55.8778 156.6 56.2111 156.84 56.6378 156.84ZM64.425 148.7H67.185V150.3C67.9983 149.047 69.0983 148.42 70.485 148.42C71.2717 148.42 71.9383 148.607 72.485 148.98C73.045 149.34 73.4517 149.86 73.705 150.54C74.1717 149.807 74.6917 149.273 75.265 148.94C75.8517 148.593 76.5183 148.42 77.265 148.42C78.3717 148.42 79.2317 148.753 79.845 149.42C80.4717 150.073 80.785 150.987 80.785 152.16V159H77.965V152.6C77.965 152.067 77.8317 151.653 77.565 151.36C77.3117 151.053 76.965 150.9 76.525 150.9C75.9783 150.9 75.4717 151.127 75.005 151.58C74.5383 152.033 74.1917 152.613 73.965 153.32V159H71.145V152.6C71.145 152.08 71.0117 151.667 70.745 151.36C70.4783 151.053 70.125 150.9 69.685 150.9C69.1917 150.9 68.725 151.087 68.285 151.46C67.8583 151.82 67.5117 152.333 67.245 153V159H64.425V148.7ZM88.2498 159.3C86.5832 159.3 85.2698 158.82 84.3098 157.86C83.3632 156.9 82.8898 155.567 82.8898 153.86C82.8898 152.753 83.0965 151.793 83.5098 150.98C83.9232 150.153 84.5032 149.52 85.2498 149.08C86.0098 148.64 86.8965 148.42 87.9098 148.42C89.4032 148.42 90.5498 148.9 91.3498 149.86C92.1498 150.82 92.5498 152.207 92.5498 154.02C92.5498 154.327 92.5432 154.553 92.5298 154.7H85.7298C85.8632 155.407 86.1698 155.947 86.6498 156.32C87.1298 156.68 87.7765 156.86 88.5898 156.86C89.0832 156.86 89.5965 156.8 90.1298 156.68C90.6632 156.547 91.1298 156.373 91.5298 156.16L91.9898 158.42C91.4565 158.7 90.8632 158.913 90.2098 159.06C89.5698 159.22 88.9165 159.3 88.2498 159.3ZM89.8498 152.58C89.8098 152.007 89.6098 151.553 89.2498 151.22C88.8898 150.873 88.4098 150.7 87.8098 150.7C87.2365 150.7 86.7632 150.867 86.3898 151.2C86.0298 151.533 85.8032 151.993 85.7098 152.58H89.8498ZM97.6394 159.3C96.986 159.3 96.3527 159.233 95.7394 159.1C95.1394 158.967 94.626 158.787 94.1994 158.56L94.4594 156.16C94.9127 156.44 95.4127 156.667 95.9594 156.84C96.506 157.013 97.0194 157.1 97.4994 157.1C97.9527 157.1 98.3327 157.02 98.6394 156.86C98.946 156.687 99.0994 156.44 99.0994 156.12C99.0994 155.867 98.9927 155.673 98.7794 155.54C98.566 155.393 98.1594 155.213 97.5594 155L97.0194 154.8C96.446 154.587 95.9794 154.387 95.6194 154.2C95.2594 154 94.9327 153.7 94.6394 153.3C94.346 152.9 94.1994 152.373 94.1994 151.72C94.1994 150.68 94.586 149.873 95.3594 149.3C96.146 148.713 97.166 148.42 98.4194 148.42C99.406 148.42 100.446 148.613 101.539 149L101.159 151.38C100.773 151.153 100.333 150.973 99.8394 150.84C99.3594 150.693 98.906 150.62 98.4794 150.62C98.0394 150.62 97.686 150.693 97.4194 150.84C97.166 150.987 97.0394 151.2 97.0394 151.48C97.0394 151.747 97.146 151.947 97.3594 152.08C97.5727 152.213 97.9327 152.367 98.4394 152.54C98.8394 152.687 99.0727 152.773 99.1394 152.8C99.6994 153.027 100.166 153.247 100.539 153.46C100.913 153.673 101.239 153.993 101.519 154.42C101.799 154.833 101.939 155.367 101.939 156.02C101.939 157.113 101.546 157.933 100.759 158.48C99.9727 159.027 98.9327 159.3 97.6394 159.3ZM50.02 203.68H53.5L58.44 217H55.44L54.36 213.96H49.12L48.1 217H45.14L50.02 203.68ZM53.5 211.48L51.7 206.38L49.96 211.48H53.5ZM59.4142 214.58H61.2342V204.8H59.5142V202.4H64.0542V214.58H65.8742V217H59.4142V214.58ZM68.9258 202.4H72.1458V205H68.9258V202.4ZM67.3658 214.58H69.2858V209.12H67.3658V206.7H72.1058V214.58H73.8258V217H67.3658V214.58ZM80.2992 217.3C78.5926 217.3 77.2659 216.847 76.3192 215.94C75.3859 215.033 74.9192 213.753 74.9192 212.1C74.9192 210.98 75.1392 209.993 75.5792 209.14C76.0192 208.273 76.6392 207.607 77.4392 207.14C78.2392 206.66 79.1659 206.42 80.2192 206.42C80.7126 206.42 81.2259 206.48 81.7592 206.6C82.3059 206.707 82.7259 206.833 83.0192 206.98L82.4792 209.36C82.1726 209.213 81.8326 209.1 81.4592 209.02C81.0992 208.927 80.7592 208.88 80.4392 208.88C79.6126 208.88 78.9459 209.16 78.4392 209.72C77.9459 210.28 77.6992 211.02 77.6992 211.94C77.6992 212.873 77.9526 213.593 78.4592 214.1C78.9792 214.607 79.7126 214.86 80.6592 214.86C81.2859 214.86 81.9592 214.74 82.6792 214.5L83.0992 216.78C82.2326 217.127 81.2992 217.3 80.2992 217.3ZM86.3086 202.4H89.5286V205H86.3086V202.4ZM84.7486 214.58H86.6686V209.12H84.7486V206.7H89.4886V214.58H91.2086V217H84.7486V214.58ZM95.862 217.3C94.7954 217.3 93.9487 216.847 93.322 215.94C92.6954 215.033 92.382 213.8 92.382 212.24C92.382 210.347 92.862 208.907 93.822 207.92C94.782 206.92 96.162 206.42 97.962 206.42C98.9754 206.42 100.162 206.58 101.522 206.9V217H98.842L98.902 215.36H98.822C98.4754 215.987 98.0487 216.467 97.542 216.8C97.0487 217.133 96.4887 217.3 95.862 217.3ZM96.462 214.84C96.8754 214.84 97.282 214.62 97.682 214.18C98.082 213.74 98.4554 213.153 98.802 212.42V209.06C98.3754 208.94 97.9487 208.88 97.522 208.88C96.722 208.88 96.1154 209.153 95.702 209.7C95.302 210.247 95.102 211.053 95.102 212.12C95.102 212.96 95.222 213.627 95.462 214.12C95.702 214.6 96.0354 214.84 96.462 214.84ZM52.62 275.26C50.4867 275.26 48.82 274.687 47.62 273.54C46.42 272.393 45.82 270.773 45.82 268.68C45.82 267.253 46.1 265.993 46.66 264.9C47.2333 263.807 48.04 262.967 49.08 262.38C50.12 261.78 51.32 261.48 52.68 261.48C53.7867 261.48 54.8533 261.68 55.88 262.08L55.34 264.66C54.4333 264.247 53.5533 264.04 52.7 264.04C51.4867 264.04 50.5267 264.44 49.82 265.24C49.1133 266.027 48.76 267.08 48.76 268.4C48.76 269.747 49.1333 270.793 49.88 271.54C50.6267 272.287 51.66 272.66 52.98 272.66C53.8467 272.66 54.6867 272.52 55.5 272.24L55.94 274.7C54.9667 275.073 53.86 275.26 52.62 275.26ZM60.9206 275.3C59.854 275.3 59.0073 274.847 58.3806 273.94C57.754 273.033 57.4406 271.8 57.4406 270.24C57.4406 268.347 57.9206 266.907 58.8806 265.92C59.8406 264.92 61.2206 264.42 63.0206 264.42C64.034 264.42 65.2206 264.58 66.5806 264.9V275H63.9006L63.9606 273.36H63.8806C63.534 273.987 63.1073 274.467 62.6006 274.8C62.1073 275.133 61.5473 275.3 60.9206 275.3ZM61.5206 272.84C61.934 272.84 62.3406 272.62 62.7406 272.18C63.1406 271.74 63.514 271.153 63.8606 270.42V267.06C63.434 266.94 63.0073 266.88 62.5806 266.88C61.7806 266.88 61.174 267.153 60.7606 267.7C60.3606 268.247 60.1606 269.053 60.1606 270.12C60.1606 270.96 60.2806 271.627 60.5206 272.12C60.7606 272.6 61.094 272.84 61.5206 272.84ZM69.3288 264.7H72.1488V266.38H72.3088C72.6954 265.7 73.0754 265.2 73.4488 264.88C73.8354 264.56 74.3154 264.4 74.8888 264.4C75.1288 264.4 75.3288 264.427 75.4888 264.48L75.1888 267.52C74.8421 267.427 74.5621 267.38 74.3488 267.38C74.0421 267.38 73.7688 267.44 73.5288 267.56C73.3021 267.68 73.0954 267.84 72.9088 268.04C72.7354 268.24 72.4821 268.547 72.1488 268.96V275H69.3288V264.7ZM81.6655 275.3C80.6255 275.3 79.7055 275.073 78.9055 274.62C78.1188 274.167 77.5055 273.533 77.0655 272.72C76.6255 271.893 76.4055 270.94 76.4055 269.86C76.4055 268.78 76.6188 267.833 77.0455 267.02C77.4855 266.193 78.0988 265.553 78.8855 265.1C79.6855 264.647 80.6055 264.42 81.6455 264.42C82.6855 264.42 83.5988 264.647 84.3855 265.1C85.1855 265.54 85.7988 266.167 86.2255 266.98C86.6655 267.793 86.8855 268.733 86.8855 269.8C86.8855 270.88 86.6655 271.84 86.2255 272.68C85.7988 273.507 85.1855 274.153 84.3855 274.62C83.5988 275.073 82.6921 275.3 81.6655 275.3ZM81.6455 272.86C82.3655 272.86 82.9388 272.587 83.3655 272.04C83.8055 271.48 84.0255 270.747 84.0255 269.84C84.0255 268.933 83.8055 268.213 83.3655 267.68C82.9388 267.133 82.3655 266.86 81.6455 266.86C80.9255 266.86 80.3455 267.133 79.9055 267.68C79.4788 268.213 79.2655 268.933 79.2655 269.84C79.2655 270.747 79.4788 271.48 79.9055 272.04C80.3455 272.587 80.9255 272.86 81.6455 272.86ZM88.1252 272.58H89.9452V262.8H88.2252V260.4H92.7652V272.58H94.5852V275H88.1252V272.58ZM97.6367 260.4H100.857V263H97.6367V260.4ZM96.0767 272.58H97.9967V267.12H96.0767V264.7H100.817V272.58H102.537V275H96.0767V272.58ZM104.405 264.7H107.165V266.48C107.592 265.773 108.085 265.253 108.645 264.92C109.205 264.587 109.859 264.42 110.605 264.42C111.712 264.42 112.579 264.753 113.205 265.42C113.832 266.073 114.145 266.987 114.145 268.16V275H111.325V268.6C111.325 268.067 111.192 267.653 110.925 267.36C110.659 267.053 110.299 266.9 109.845 266.9C109.312 266.9 108.805 267.1 108.325 267.5C107.845 267.9 107.479 268.407 107.225 269.02V275H104.405V264.7ZM119.729 275.3C118.663 275.3 117.816 274.847 117.189 273.94C116.563 273.033 116.249 271.8 116.249 270.24C116.249 268.347 116.729 266.907 117.689 265.92C118.649 264.92 120.029 264.42 121.829 264.42C122.843 264.42 124.029 264.58 125.389 264.9V275H122.709L122.769 273.36H122.689C122.343 273.987 121.916 274.467 121.409 274.8C120.916 275.133 120.356 275.3 119.729 275.3ZM120.329 272.84C120.743 272.84 121.149 272.62 121.549 272.18C121.949 271.74 122.323 271.153 122.669 270.42V267.06C122.243 266.94 121.816 266.88 121.389 266.88C120.589 266.88 119.983 267.153 119.569 267.7C119.169 268.247 118.969 269.053 118.969 270.12C118.969 270.96 119.089 271.627 119.329 272.12C119.569 272.6 119.903 272.84 120.329 272.84ZM50.02 319.68H53.5L58.44 333H55.44L54.36 329.96H49.12L48.1 333H45.14L50.02 319.68ZM53.5 327.48L51.7 322.38L49.96 327.48H53.5ZM59.4142 330.58H61.2342V320.8H59.5142V318.4H64.0542V330.58H65.8742V333H59.4142V330.58ZM72.3514 333.3C70.6847 333.3 69.3714 332.82 68.4114 331.86C67.4647 330.9 66.9914 329.567 66.9914 327.86C66.9914 326.753 67.1981 325.793 67.6114 324.98C68.0247 324.153 68.6047 323.52 69.3514 323.08C70.1114 322.64 70.9981 322.42 72.0114 322.42C73.5047 322.42 74.6514 322.9 75.4514 323.86C76.2514 324.82 76.6514 326.207 76.6514 328.02C76.6514 328.327 76.6447 328.553 76.6314 328.7H69.8314C69.9647 329.407 70.2714 329.947 70.7514 330.32C71.2314 330.68 71.8781 330.86 72.6914 330.86C73.1847 330.86 73.6981 330.8 74.2314 330.68C74.7647 330.547 75.2314 330.373 75.6314 330.16L76.0914 332.42C75.5581 332.7 74.9647 332.913 74.3114 333.06C73.6714 333.22 73.0181 333.3 72.3514 333.3ZM73.9514 326.58C73.9114 326.007 73.7114 325.553 73.3514 325.22C72.9914 324.873 72.5114 324.7 71.9114 324.7C71.3381 324.7 70.8647 324.867 70.4914 325.2C70.1314 325.533 69.9047 325.993 69.8114 326.58H73.9514ZM82.4903 329.84L80.4303 333H77.2303L81.0303 327.68L77.5903 322.7L80.7103 322.54L82.6503 325.46L84.4503 322.7H87.5303L84.1303 327.54L87.8303 333L84.7103 333.16L82.4903 329.84ZM52.62 391.26C50.4867 391.26 48.82 390.687 47.62 389.54C46.42 388.393 45.82 386.773 45.82 384.68C45.82 383.253 46.1 381.993 46.66 380.9C47.2333 379.807 48.04 378.967 49.08 378.38C50.12 377.78 51.32 377.48 52.68 377.48C53.7867 377.48 54.8533 377.68 55.88 378.08L55.34 380.66C54.4333 380.247 53.5533 380.04 52.7 380.04C51.4867 380.04 50.5267 380.44 49.82 381.24C49.1133 382.027 48.76 383.08 48.76 384.4C48.76 385.747 49.1333 386.793 49.88 387.54C50.6267 388.287 51.66 388.66 52.98 388.66C53.8467 388.66 54.6867 388.52 55.5 388.24L55.94 390.7C54.9667 391.073 53.86 391.26 52.62 391.26ZM62.7006 391.3C61.6606 391.3 60.7406 391.073 59.9406 390.62C59.154 390.167 58.5406 389.533 58.1006 388.72C57.6606 387.893 57.4406 386.94 57.4406 385.86C57.4406 384.78 57.654 383.833 58.0806 383.02C58.5206 382.193 59.134 381.553 59.9206 381.1C60.7206 380.647 61.6406 380.42 62.6806 380.42C63.7206 380.42 64.634 380.647 65.4206 381.1C66.2206 381.54 66.834 382.167 67.2606 382.98C67.7006 383.793 67.9206 384.733 67.9206 385.8C67.9206 386.88 67.7006 387.84 67.2606 388.68C66.834 389.507 66.2206 390.153 65.4206 390.62C64.634 391.073 63.7273 391.3 62.7006 391.3ZM62.6806 388.86C63.4006 388.86 63.974 388.587 64.4006 388.04C64.8406 387.48 65.0606 386.747 65.0606 385.84C65.0606 384.933 64.8406 384.213 64.4006 383.68C63.974 383.133 63.4006 382.86 62.6806 382.86C61.9606 382.86 61.3806 383.133 60.9406 383.68C60.514 384.213 60.3006 384.933 60.3006 385.84C60.3006 386.747 60.514 387.48 60.9406 388.04C61.3806 388.587 61.9606 388.86 62.6806 388.86ZM69.1603 388.58H70.9803V378.8H69.2603V376.4H73.8003V388.58H75.6203V391H69.1603V388.58ZM82.0975 391.3C80.4308 391.3 79.1175 390.82 78.1575 389.86C77.2108 388.9 76.7375 387.567 76.7375 385.86C76.7375 384.753 76.9442 383.793 77.3575 382.98C77.7708 382.153 78.3508 381.52 79.0975 381.08C79.8575 380.64 80.7442 380.42 81.7575 380.42C83.2508 380.42 84.3975 380.9 85.1975 381.86C85.9975 382.82 86.3975 384.207 86.3975 386.02C86.3975 386.327 86.3908 386.553 86.3775 386.7H79.5775C79.7108 387.407 80.0175 387.947 80.4975 388.32C80.9775 388.68 81.6242 388.86 82.4375 388.86C82.9308 388.86 83.4442 388.8 83.9775 388.68C84.5108 388.547 84.9775 388.373 85.3775 388.16L85.8375 390.42C85.3042 390.7 84.7108 390.913 84.0575 391.06C83.4175 391.22 82.7642 391.3 82.0975 391.3ZM83.6975 384.58C83.6575 384.007 83.4575 383.553 83.0975 383.22C82.7375 382.873 82.2575 382.7 81.6575 382.7C81.0842 382.7 80.6108 382.867 80.2375 383.2C79.8775 383.533 79.6508 383.993 79.5575 384.58H83.6975Z" fill="white"/>
<path d="M176.97 160.035C175.97 160.035 175.085 159.825 174.315 159.405C173.555 158.985 172.96 158.4 172.53 157.65C172.11 156.9 171.9 156.04 171.9 155.07C171.9 154.01 172.15 153.04 172.65 152.16C173.15 151.28 173.84 150.59 174.72 150.09C175.6 149.58 176.58 149.325 177.66 149.325C178.59 149.325 179.415 149.515 180.135 149.895C180.865 150.275 181.43 150.81 181.83 151.5C182.24 152.19 182.445 152.985 182.445 153.885C182.445 154.855 182.205 155.62 181.725 156.18C181.245 156.74 180.56 157.055 179.67 157.125C179.37 157.145 179.1 157.155 178.86 157.155C178.53 157.155 178.185 157.145 177.825 157.125L177.915 156.495H177.855C177.665 156.725 177.43 156.905 177.15 157.035C176.88 157.165 176.595 157.23 176.295 157.23C175.765 157.23 175.375 157.035 175.125 156.645C174.875 156.255 174.75 155.77 174.75 155.19C174.75 154.8 174.805 154.425 174.915 154.065C175.035 153.705 175.2 153.385 175.41 153.105C175.93 152.435 176.65 152.1 177.57 152.1C178.07 152.1 178.68 152.205 179.4 152.415L178.965 156.135C179.215 156.145 179.49 156.135 179.79 156.105C180.29 156.045 180.66 155.845 180.9 155.505C181.15 155.165 181.275 154.665 181.275 154.005C181.275 153.255 181.12 152.605 180.81 152.055C180.51 151.505 180.08 151.085 179.52 150.795C178.97 150.505 178.33 150.36 177.6 150.36C176.73 150.36 175.95 150.56 175.26 150.96C174.57 151.36 174.03 151.91 173.64 152.61C173.26 153.31 173.07 154.095 173.07 154.965C173.07 155.765 173.235 156.47 173.565 157.08C173.895 157.68 174.37 158.15 174.99 158.49C175.61 158.82 176.34 158.985 177.18 158.985C177.99 158.985 178.765 158.835 179.505 158.535L179.37 159.705C179.06 159.805 178.68 159.885 178.23 159.945C177.78 160.005 177.36 160.035 176.97 160.035ZM176.655 156.165C176.875 156.165 177.09 156.085 177.3 155.925C177.52 155.765 177.715 155.54 177.885 155.25L178.125 153.27C177.925 153.18 177.695 153.135 177.435 153.135C176.955 153.135 176.59 153.33 176.34 153.72C176.1 154.11 175.98 154.57 175.98 155.1C175.98 155.45 176.035 155.715 176.145 155.895C176.265 156.075 176.435 156.165 176.655 156.165ZM184.564 148.05H186.979V150H184.564V148.05ZM184.204 162.495C183.694 162.495 183.194 162.395 182.704 162.195L183.259 160.44C183.499 160.55 183.729 160.605 183.949 160.605C184.209 160.605 184.399 160.53 184.519 160.38C184.649 160.23 184.714 159.995 184.714 159.675V151.275H186.829V159.84C186.829 160.66 186.589 161.305 186.109 161.775C185.639 162.255 185.004 162.495 184.204 162.495ZM191.1 159.225C190.3 159.225 189.665 158.885 189.195 158.205C188.725 157.525 188.49 156.6 188.49 155.43C188.49 154.01 188.85 152.93 189.57 152.19C190.29 151.44 191.325 151.065 192.675 151.065C193.435 151.065 194.325 151.185 195.345 151.425V159H193.335L193.38 157.77H193.32C193.06 158.24 192.74 158.6 192.36 158.85C191.99 159.1 191.57 159.225 191.1 159.225ZM191.55 157.38C191.86 157.38 192.165 157.215 192.465 156.885C192.765 156.555 193.045 156.115 193.305 155.565V153.045C192.985 152.955 192.665 152.91 192.345 152.91C191.745 152.91 191.29 153.115 190.98 153.525C190.68 153.935 190.53 154.54 190.53 155.34C190.53 155.97 190.62 156.47 190.8 156.84C190.98 157.2 191.23 157.38 191.55 157.38ZM197.39 151.275H199.46V152.475C200.07 151.535 200.895 151.065 201.935 151.065C202.525 151.065 203.025 151.205 203.435 151.485C203.855 151.755 204.16 152.145 204.35 152.655C204.7 152.105 205.09 151.705 205.52 151.455C205.96 151.195 206.46 151.065 207.02 151.065C207.85 151.065 208.495 151.315 208.955 151.815C209.425 152.305 209.66 152.99 209.66 153.87V159H207.545V154.2C207.545 153.8 207.445 153.49 207.245 153.27C207.055 153.04 206.795 152.925 206.465 152.925C206.055 152.925 205.675 153.095 205.325 153.435C204.975 153.775 204.715 154.21 204.545 154.74V159H202.43V154.2C202.43 153.81 202.33 153.5 202.13 153.27C201.93 153.04 201.665 152.925 201.335 152.925C200.965 152.925 200.615 153.065 200.285 153.345C199.965 153.615 199.705 154 199.505 154.5V159H197.39V151.275ZM215.259 159.225C214.009 159.225 213.024 158.865 212.304 158.145C211.594 157.425 211.239 156.425 211.239 155.145C211.239 154.315 211.394 153.595 211.704 152.985C212.014 152.365 212.449 151.89 213.009 151.56C213.579 151.23 214.244 151.065 215.004 151.065C216.124 151.065 216.984 151.425 217.584 152.145C218.184 152.865 218.484 153.905 218.484 155.265C218.484 155.495 218.479 155.665 218.469 155.775H213.369C213.469 156.305 213.699 156.71 214.059 156.99C214.419 157.26 214.904 157.395 215.514 157.395C215.884 157.395 216.269 157.35 216.669 157.26C217.069 157.16 217.419 157.03 217.719 156.87L218.064 158.565C217.664 158.775 217.219 158.935 216.729 159.045C216.249 159.165 215.759 159.225 215.259 159.225ZM216.459 154.185C216.429 153.755 216.279 153.415 216.009 153.165C215.739 152.905 215.379 152.775 214.929 152.775C214.499 152.775 214.144 152.9 213.864 153.15C213.594 153.4 213.424 153.745 213.354 154.185H216.459ZM222.301 159.225C221.811 159.225 221.336 159.175 220.876 159.075C220.426 158.975 220.041 158.84 219.721 158.67L219.916 156.87C220.256 157.08 220.631 157.25 221.041 157.38C221.451 157.51 221.836 157.575 222.196 157.575C222.536 157.575 222.821 157.515 223.051 157.395C223.281 157.265 223.396 157.08 223.396 156.84C223.396 156.65 223.316 156.505 223.156 156.405C222.996 156.295 222.691 156.16 222.241 156L221.836 155.85C221.406 155.69 221.056 155.54 220.786 155.4C220.516 155.25 220.271 155.025 220.051 154.725C219.831 154.425 219.721 154.03 219.721 153.54C219.721 152.76 220.011 152.155 220.591 151.725C221.181 151.285 221.946 151.065 222.886 151.065C223.626 151.065 224.406 151.21 225.226 151.5L224.941 153.285C224.651 153.115 224.321 152.98 223.951 152.88C223.591 152.77 223.251 152.715 222.931 152.715C222.601 152.715 222.336 152.77 222.136 152.88C221.946 152.99 221.851 153.15 221.851 153.36C221.851 153.56 221.931 153.71 222.091 153.81C222.251 153.91 222.521 154.025 222.901 154.155C223.201 154.265 223.376 154.33 223.426 154.35C223.846 154.52 224.196 154.685 224.476 154.845C224.756 155.005 225.001 155.245 225.211 155.565C225.421 155.875 225.526 156.275 225.526 156.765C225.526 157.585 225.231 158.2 224.641 158.61C224.051 159.02 223.271 159.225 222.301 159.225ZM229.932 159.225C229.132 159.225 228.187 159.105 227.097 158.865V148.05H229.182V152.025C229.772 151.385 230.497 151.065 231.357 151.065C232.237 151.065 232.927 151.4 233.427 152.07C233.927 152.73 234.177 153.655 234.177 154.845C234.177 156.265 233.812 157.35 233.082 158.1C232.352 158.85 231.302 159.225 229.932 159.225ZM230.157 157.38C230.777 157.38 231.247 157.175 231.567 156.765C231.897 156.355 232.062 155.755 232.062 154.965C232.062 154.315 231.952 153.81 231.732 153.45C231.522 153.09 231.222 152.91 230.832 152.91C230.512 152.91 230.212 153.025 229.932 153.255C229.652 153.475 229.402 153.8 229.182 154.23V157.245C229.492 157.335 229.817 157.38 230.157 157.38Z" fill="#68EDFF"/>
<path d="M171 160.5H234.777V161.25H171V160.5Z" fill="#68EDFF"/>
<path d="M176.97 214.035C175.97 214.035 175.085 213.825 174.315 213.405C173.555 212.985 172.96 212.4 172.53 211.65C172.11 210.9 171.9 210.04 171.9 209.07C171.9 208.01 172.15 207.04 172.65 206.16C173.15 205.28 173.84 204.59 174.72 204.09C175.6 203.58 176.58 203.325 177.66 203.325C178.59 203.325 179.415 203.515 180.135 203.895C180.865 204.275 181.43 204.81 181.83 205.5C182.24 206.19 182.445 206.985 182.445 207.885C182.445 208.855 182.205 209.62 181.725 210.18C181.245 210.74 180.56 211.055 179.67 211.125C179.37 211.145 179.1 211.155 178.86 211.155C178.53 211.155 178.185 211.145 177.825 211.125L177.915 210.495H177.855C177.665 210.725 177.43 210.905 177.15 211.035C176.88 211.165 176.595 211.23 176.295 211.23C175.765 211.23 175.375 211.035 175.125 210.645C174.875 210.255 174.75 209.77 174.75 209.19C174.75 208.8 174.805 208.425 174.915 208.065C175.035 207.705 175.2 207.385 175.41 207.105C175.93 206.435 176.65 206.1 177.57 206.1C178.07 206.1 178.68 206.205 179.4 206.415L178.965 210.135C179.215 210.145 179.49 210.135 179.79 210.105C180.29 210.045 180.66 209.845 180.9 209.505C181.15 209.165 181.275 208.665 181.275 208.005C181.275 207.255 181.12 206.605 180.81 206.055C180.51 205.505 180.08 205.085 179.52 204.795C178.97 204.505 178.33 204.36 177.6 204.36C176.73 204.36 175.95 204.56 175.26 204.96C174.57 205.36 174.03 205.91 173.64 206.61C173.26 207.31 173.07 208.095 173.07 208.965C173.07 209.765 173.235 210.47 173.565 211.08C173.895 211.68 174.37 212.15 174.99 212.49C175.61 212.82 176.34 212.985 177.18 212.985C177.99 212.985 178.765 212.835 179.505 212.535L179.37 213.705C179.06 213.805 178.68 213.885 178.23 213.945C177.78 214.005 177.36 214.035 176.97 214.035ZM176.655 210.165C176.875 210.165 177.09 210.085 177.3 209.925C177.52 209.765 177.715 209.54 177.885 209.25L178.125 207.27C177.925 207.18 177.695 207.135 177.435 207.135C176.955 207.135 176.59 207.33 176.34 207.72C176.1 208.11 175.98 208.57 175.98 209.1C175.98 209.45 176.035 209.715 176.145 209.895C176.265 210.075 176.435 210.165 176.655 210.165ZM186.559 213.225C185.759 213.225 185.124 212.885 184.654 212.205C184.184 211.525 183.949 210.6 183.949 209.43C183.949 208.01 184.309 206.93 185.029 206.19C185.749 205.44 186.784 205.065 188.134 205.065C188.894 205.065 189.784 205.185 190.804 205.425V213H188.794L188.839 211.77H188.779C188.519 212.24 188.199 212.6 187.819 212.85C187.449 213.1 187.029 213.225 186.559 213.225ZM187.009 211.38C187.319 211.38 187.624 211.215 187.924 210.885C188.224 210.555 188.504 210.115 188.764 209.565V207.045C188.444 206.955 188.124 206.91 187.804 206.91C187.204 206.91 186.749 207.115 186.439 207.525C186.139 207.935 185.989 208.54 185.989 209.34C185.989 209.97 186.079 210.47 186.259 210.84C186.439 211.2 186.689 211.38 187.009 211.38ZM195.728 213.225C194.928 213.225 193.983 213.105 192.893 212.865V202.05H194.978V206.025C195.568 205.385 196.293 205.065 197.153 205.065C198.033 205.065 198.723 205.4 199.223 206.07C199.723 206.73 199.973 207.655 199.973 208.845C199.973 210.265 199.608 211.35 198.878 212.1C198.148 212.85 197.098 213.225 195.728 213.225ZM195.953 211.38C196.573 211.38 197.043 211.175 197.363 210.765C197.693 210.355 197.858 209.755 197.858 208.965C197.858 208.315 197.748 207.81 197.528 207.45C197.318 207.09 197.018 206.91 196.628 206.91C196.308 206.91 196.008 207.025 195.728 207.255C195.448 207.475 195.198 207.8 194.978 208.23V211.245C195.288 211.335 195.613 211.38 195.953 211.38ZM202.377 202.05H204.792V204H202.377V202.05ZM201.207 211.185H202.647V207.09H201.207V205.275H204.762V211.185H206.052V213H201.207V211.185ZM207.109 211.185H208.474V203.85H207.184V202.05H210.589V211.185H211.954V213H207.109V211.185ZM212.851 211.185H214.216V203.85H212.926V202.05H216.331V211.185H217.696V213H212.851V211.185ZM219.984 202.05H222.399V204H219.984V202.05ZM218.814 211.185H220.254V207.09H218.814V205.275H222.369V211.185H223.659V213H218.814V211.185Z" fill="#68EDFF"/>
<path d="M171 214.5H224.079V215.25H171V214.5Z" fill="#68EDFF"/>
<path d="M176.97 275.035C175.97 275.035 175.085 274.825 174.315 274.405C173.555 273.985 172.96 273.4 172.53 272.65C172.11 271.9 171.9 271.04 171.9 270.07C171.9 269.01 172.15 268.04 172.65 267.16C173.15 266.28 173.84 265.59 174.72 265.09C175.6 264.58 176.58 264.325 177.66 264.325C178.59 264.325 179.415 264.515 180.135 264.895C180.865 265.275 181.43 265.81 181.83 266.5C182.24 267.19 182.445 267.985 182.445 268.885C182.445 269.855 182.205 270.62 181.725 271.18C181.245 271.74 180.56 272.055 179.67 272.125C179.37 272.145 179.1 272.155 178.86 272.155C178.53 272.155 178.185 272.145 177.825 272.125L177.915 271.495H177.855C177.665 271.725 177.43 271.905 177.15 272.035C176.88 272.165 176.595 272.23 176.295 272.23C175.765 272.23 175.375 272.035 175.125 271.645C174.875 271.255 174.75 270.77 174.75 270.19C174.75 269.8 174.805 269.425 174.915 269.065C175.035 268.705 175.2 268.385 175.41 268.105C175.93 267.435 176.65 267.1 177.57 267.1C178.07 267.1 178.68 267.205 179.4 267.415L178.965 271.135C179.215 271.145 179.49 271.135 179.79 271.105C180.29 271.045 180.66 270.845 180.9 270.505C181.15 270.165 181.275 269.665 181.275 269.005C181.275 268.255 181.12 267.605 180.81 267.055C180.51 266.505 180.08 266.085 179.52 265.795C178.97 265.505 178.33 265.36 177.6 265.36C176.73 265.36 175.95 265.56 175.26 265.96C174.57 266.36 174.03 266.91 173.64 267.61C173.26 268.31 173.07 269.095 173.07 269.965C173.07 270.765 173.235 271.47 173.565 272.08C173.895 272.68 174.37 273.15 174.99 273.49C175.61 273.82 176.34 273.985 177.18 273.985C177.99 273.985 178.765 273.835 179.505 273.535L179.37 274.705C179.06 274.805 178.68 274.885 178.23 274.945C177.78 275.005 177.36 275.035 176.97 275.035ZM176.655 271.165C176.875 271.165 177.09 271.085 177.3 270.925C177.52 270.765 177.715 270.54 177.885 270.25L178.125 268.27C177.925 268.18 177.695 268.135 177.435 268.135C176.955 268.135 176.59 268.33 176.34 268.72C176.1 269.11 175.98 269.57 175.98 270.1C175.98 270.45 176.035 270.715 176.145 270.895C176.265 271.075 176.435 271.165 176.655 271.165ZM187.924 274.225C186.644 274.225 185.649 273.885 184.939 273.205C184.239 272.525 183.889 271.565 183.889 270.325C183.889 269.485 184.054 268.745 184.384 268.105C184.714 267.455 185.179 266.955 185.779 266.605C186.379 266.245 187.074 266.065 187.864 266.065C188.234 266.065 188.619 266.11 189.019 266.2C189.429 266.28 189.744 266.375 189.964 266.485L189.559 268.27C189.329 268.16 189.074 268.075 188.794 268.015C188.524 267.945 188.269 267.91 188.029 267.91C187.409 267.91 186.909 268.12 186.529 268.54C186.159 268.96 185.974 269.515 185.974 270.205C185.974 270.905 186.164 271.445 186.544 271.825C186.934 272.205 187.484 272.395 188.194 272.395C188.664 272.395 189.169 272.305 189.709 272.125L190.024 273.835C189.374 274.095 188.674 274.225 187.924 274.225ZM193.962 277.405C193.072 277.405 192.202 277.29 191.352 277.06L191.757 275.2C192.717 275.48 193.517 275.62 194.157 275.62C194.667 275.62 195.057 275.54 195.327 275.38C195.607 275.22 195.802 274.97 195.912 274.63C196.032 274.29 196.102 273.825 196.122 273.235H196.077C195.797 273.555 195.472 273.8 195.102 273.97C194.732 274.14 194.327 274.225 193.887 274.225C193.007 274.225 192.317 273.895 191.817 273.235C191.327 272.565 191.082 271.64 191.082 270.46C191.082 269.03 191.447 267.94 192.177 267.19C192.917 266.44 193.972 266.065 195.342 266.065C196.132 266.065 197.072 266.185 198.162 266.425C198.182 268.485 198.192 270.035 198.192 271.075C198.192 272.005 198.187 272.705 198.177 273.175C198.157 274.595 197.797 275.655 197.097 276.355C196.407 277.055 195.362 277.405 193.962 277.405ZM194.442 272.38C194.752 272.38 195.047 272.265 195.327 272.035C195.617 271.805 195.872 271.48 196.092 271.06L196.077 268.045C195.747 267.955 195.427 267.91 195.117 267.91C194.487 267.91 194.007 268.115 193.677 268.525C193.357 268.935 193.197 269.53 193.197 270.31C193.197 270.96 193.302 271.47 193.512 271.84C193.732 272.2 194.042 272.38 194.442 272.38ZM202.35 274.225C201.55 274.225 200.915 273.885 200.445 273.205C199.975 272.525 199.74 271.6 199.74 270.43C199.74 269.01 200.1 267.93 200.82 267.19C201.54 266.44 202.575 266.065 203.925 266.065C204.685 266.065 205.575 266.185 206.595 266.425V274H204.585L204.63 272.77H204.57C204.31 273.24 203.99 273.6 203.61 273.85C203.24 274.1 202.82 274.225 202.35 274.225ZM202.8 272.38C203.11 272.38 203.415 272.215 203.715 271.885C204.015 271.555 204.295 271.115 204.555 270.565V268.045C204.235 267.955 203.915 267.91 203.595 267.91C202.995 267.91 202.54 268.115 202.23 268.525C201.93 268.935 201.78 269.54 201.78 270.34C201.78 270.97 201.87 271.47 202.05 271.84C202.23 272.2 202.48 272.38 202.8 272.38ZM208.046 272.185H209.411V264.85H208.121V263.05H211.526V272.185H212.891V274H208.046V272.185Z" fill="#68EDFF"/>
<path d="M171 275.5H213.311V276.25H171V275.5Z" fill="#68EDFF"/>
<path d="M176.97 333.035C175.97 333.035 175.085 332.825 174.315 332.405C173.555 331.985 172.96 331.4 172.53 330.65C172.11 329.9 171.9 329.04 171.9 328.07C171.9 327.01 172.15 326.04 172.65 325.16C173.15 324.28 173.84 323.59 174.72 323.09C175.6 322.58 176.58 322.325 177.66 322.325C178.59 322.325 179.415 322.515 180.135 322.895C180.865 323.275 181.43 323.81 181.83 324.5C182.24 325.19 182.445 325.985 182.445 326.885C182.445 327.855 182.205 328.62 181.725 329.18C181.245 329.74 180.56 330.055 179.67 330.125C179.37 330.145 179.1 330.155 178.86 330.155C178.53 330.155 178.185 330.145 177.825 330.125L177.915 329.495H177.855C177.665 329.725 177.43 329.905 177.15 330.035C176.88 330.165 176.595 330.23 176.295 330.23C175.765 330.23 175.375 330.035 175.125 329.645C174.875 329.255 174.75 328.77 174.75 328.19C174.75 327.8 174.805 327.425 174.915 327.065C175.035 326.705 175.2 326.385 175.41 326.105C175.93 325.435 176.65 325.1 177.57 325.1C178.07 325.1 178.68 325.205 179.4 325.415L178.965 329.135C179.215 329.145 179.49 329.135 179.79 329.105C180.29 329.045 180.66 328.845 180.9 328.505C181.15 328.165 181.275 327.665 181.275 327.005C181.275 326.255 181.12 325.605 180.81 325.055C180.51 324.505 180.08 324.085 179.52 323.795C178.97 323.505 178.33 323.36 177.6 323.36C176.73 323.36 175.95 323.56 175.26 323.96C174.57 324.36 174.03 324.91 173.64 325.61C173.26 326.31 173.07 327.095 173.07 327.965C173.07 328.765 173.235 329.47 173.565 330.08C173.895 330.68 174.37 331.15 174.99 331.49C175.61 331.82 176.34 331.985 177.18 331.985C177.99 331.985 178.765 331.835 179.505 331.535L179.37 332.705C179.06 332.805 178.68 332.885 178.23 332.945C177.78 333.005 177.36 333.035 176.97 333.035ZM176.655 329.165C176.875 329.165 177.09 329.085 177.3 328.925C177.52 328.765 177.715 328.54 177.885 328.25L178.125 326.27C177.925 326.18 177.695 326.135 177.435 326.135C176.955 326.135 176.59 326.33 176.34 326.72C176.1 327.11 175.98 327.57 175.98 328.1C175.98 328.45 176.035 328.715 176.145 328.895C176.265 329.075 176.435 329.165 176.655 329.165ZM186.559 332.225C185.759 332.225 185.124 331.885 184.654 331.205C184.184 330.525 183.949 329.6 183.949 328.43C183.949 327.01 184.309 325.93 185.029 325.19C185.749 324.44 186.784 324.065 188.134 324.065C188.894 324.065 189.784 324.185 190.804 324.425V332H188.794L188.839 330.77H188.779C188.519 331.24 188.199 331.6 187.819 331.85C187.449 332.1 187.029 332.225 186.559 332.225ZM187.009 330.38C187.319 330.38 187.624 330.215 187.924 329.885C188.224 329.555 188.504 329.115 188.764 328.565V326.045C188.444 325.955 188.124 325.91 187.804 325.91C187.204 325.91 186.749 326.115 186.439 326.525C186.139 326.935 185.989 327.54 185.989 328.34C185.989 328.97 186.079 329.47 186.259 329.84C186.439 330.2 186.689 330.38 187.009 330.38ZM192.255 330.185H193.62V322.85H192.33V321.05H195.735V330.185H197.1V332H192.255V330.185ZM201.958 332.225C200.708 332.225 199.723 331.865 199.003 331.145C198.293 330.425 197.938 329.425 197.938 328.145C197.938 327.315 198.093 326.595 198.403 325.985C198.713 325.365 199.148 324.89 199.708 324.56C200.278 324.23 200.943 324.065 201.703 324.065C202.823 324.065 203.683 324.425 204.283 325.145C204.883 325.865 205.183 326.905 205.183 328.265C205.183 328.495 205.178 328.665 205.168 328.775H200.068C200.168 329.305 200.398 329.71 200.758 329.99C201.118 330.26 201.603 330.395 202.213 330.395C202.583 330.395 202.968 330.35 203.368 330.26C203.768 330.16 204.118 330.03 204.418 329.87L204.763 331.565C204.363 331.775 203.918 331.935 203.428 332.045C202.948 332.165 202.458 332.225 201.958 332.225ZM203.158 327.185C203.128 326.755 202.978 326.415 202.708 326.165C202.438 325.905 202.078 325.775 201.628 325.775C201.198 325.775 200.843 325.9 200.563 326.15C200.293 326.4 200.123 326.745 200.053 327.185H203.158ZM209.562 329.63L208.017 332H205.617L208.467 328.01L205.887 324.275L208.227 324.155L209.682 326.345L211.032 324.275H213.342L210.792 327.905L213.567 332L211.227 332.12L209.562 329.63ZM217.004 335.405C216.114 335.405 215.244 335.29 214.394 335.06L214.799 333.2C215.759 333.48 216.559 333.62 217.199 333.62C217.709 333.62 218.099 333.54 218.369 333.38C218.649 333.22 218.844 332.97 218.954 332.63C219.074 332.29 219.144 331.825 219.164 331.235H219.119C218.839 331.555 218.514 331.8 218.144 331.97C217.774 332.14 217.369 332.225 216.929 332.225C216.049 332.225 215.359 331.895 214.859 331.235C214.369 330.565 214.124 329.64 214.124 328.46C214.124 327.03 214.489 325.94 215.219 325.19C215.959 324.44 217.014 324.065 218.384 324.065C219.174 324.065 220.114 324.185 221.204 324.425C221.224 326.485 221.234 328.035 221.234 329.075C221.234 330.005 221.229 330.705 221.219 331.175C221.199 332.595 220.839 333.655 220.139 334.355C219.449 335.055 218.404 335.405 217.004 335.405ZM217.484 330.38C217.794 330.38 218.089 330.265 218.369 330.035C218.659 329.805 218.914 329.48 219.134 329.06L219.119 326.045C218.789 325.955 218.469 325.91 218.159 325.91C217.529 325.91 217.049 326.115 216.719 326.525C216.399 326.935 216.239 327.53 216.239 328.31C216.239 328.96 216.344 329.47 216.554 329.84C216.774 330.2 217.084 330.38 217.484 330.38Z" fill="#68EDFF"/>
<path d="M171 333.5H222.179V334.25H171V333.5Z" fill="#68EDFF"/>
<path d="M176.97 391.035C175.97 391.035 175.085 390.825 174.315 390.405C173.555 389.985 172.96 389.4 172.53 388.65C172.11 387.9 171.9 387.04 171.9 386.07C171.9 385.01 172.15 384.04 172.65 383.16C173.15 382.28 173.84 381.59 174.72 381.09C175.6 380.58 176.58 380.325 177.66 380.325C178.59 380.325 179.415 380.515 180.135 380.895C180.865 381.275 181.43 381.81 181.83 382.5C182.24 383.19 182.445 383.985 182.445 384.885C182.445 385.855 182.205 386.62 181.725 387.18C181.245 387.74 180.56 388.055 179.67 388.125C179.37 388.145 179.1 388.155 178.86 388.155C178.53 388.155 178.185 388.145 177.825 388.125L177.915 387.495H177.855C177.665 387.725 177.43 387.905 177.15 388.035C176.88 388.165 176.595 388.23 176.295 388.23C175.765 388.23 175.375 388.035 175.125 387.645C174.875 387.255 174.75 386.77 174.75 386.19C174.75 385.8 174.805 385.425 174.915 385.065C175.035 384.705 175.2 384.385 175.41 384.105C175.93 383.435 176.65 383.1 177.57 383.1C178.07 383.1 178.68 383.205 179.4 383.415L178.965 387.135C179.215 387.145 179.49 387.135 179.79 387.105C180.29 387.045 180.66 386.845 180.9 386.505C181.15 386.165 181.275 385.665 181.275 385.005C181.275 384.255 181.12 383.605 180.81 383.055C180.51 382.505 180.08 382.085 179.52 381.795C178.97 381.505 178.33 381.36 177.6 381.36C176.73 381.36 175.95 381.56 175.26 381.96C174.57 382.36 174.03 382.91 173.64 383.61C173.26 384.31 173.07 385.095 173.07 385.965C173.07 386.765 173.235 387.47 173.565 388.08C173.895 388.68 174.37 389.15 174.99 389.49C175.61 389.82 176.34 389.985 177.18 389.985C177.99 389.985 178.765 389.835 179.505 389.535L179.37 390.705C179.06 390.805 178.68 390.885 178.23 390.945C177.78 391.005 177.36 391.035 176.97 391.035ZM176.655 387.165C176.875 387.165 177.09 387.085 177.3 386.925C177.52 386.765 177.715 386.54 177.885 386.25L178.125 384.27C177.925 384.18 177.695 384.135 177.435 384.135C176.955 384.135 176.59 384.33 176.34 384.72C176.1 385.11 175.98 385.57 175.98 386.1C175.98 386.45 176.035 386.715 176.145 386.895C176.265 387.075 176.435 387.165 176.655 387.165ZM187.924 390.225C186.644 390.225 185.649 389.885 184.939 389.205C184.239 388.525 183.889 387.565 183.889 386.325C183.889 385.485 184.054 384.745 184.384 384.105C184.714 383.455 185.179 382.955 185.779 382.605C186.379 382.245 187.074 382.065 187.864 382.065C188.234 382.065 188.619 382.11 189.019 382.2C189.429 382.28 189.744 382.375 189.964 382.485L189.559 384.27C189.329 384.16 189.074 384.075 188.794 384.015C188.524 383.945 188.269 383.91 188.029 383.91C187.409 383.91 186.909 384.12 186.529 384.54C186.159 384.96 185.974 385.515 185.974 386.205C185.974 386.905 186.164 387.445 186.544 387.825C186.934 388.205 187.484 388.395 188.194 388.395C188.664 388.395 189.169 388.305 189.709 388.125L190.024 389.835C189.374 390.095 188.674 390.225 187.924 390.225ZM195.027 390.225C194.247 390.225 193.557 390.055 192.957 389.715C192.367 389.375 191.907 388.9 191.577 388.29C191.247 387.67 191.082 386.955 191.082 386.145C191.082 385.335 191.242 384.625 191.562 384.015C191.892 383.395 192.352 382.915 192.942 382.575C193.542 382.235 194.232 382.065 195.012 382.065C195.792 382.065 196.477 382.235 197.067 382.575C197.667 382.905 198.127 383.375 198.447 383.985C198.777 384.595 198.942 385.3 198.942 386.1C198.942 386.91 198.777 387.63 198.447 388.26C198.127 388.88 197.667 389.365 197.067 389.715C196.477 390.055 195.797 390.225 195.027 390.225ZM195.012 388.395C195.552 388.395 195.982 388.19 196.302 387.78C196.632 387.36 196.797 386.81 196.797 386.13C196.797 385.45 196.632 384.91 196.302 384.51C195.982 384.1 195.552 383.895 195.012 383.895C194.472 383.895 194.037 384.1 193.707 384.51C193.387 384.91 193.227 385.45 193.227 386.13C193.227 386.81 193.387 387.36 193.707 387.78C194.037 388.19 194.472 388.395 195.012 388.395ZM204.153 390.225C203.373 390.225 202.683 390.055 202.083 389.715C201.493 389.375 201.033 388.9 200.703 388.29C200.373 387.67 200.208 386.955 200.208 386.145C200.208 385.335 200.368 384.625 200.688 384.015C201.018 383.395 201.478 382.915 202.068 382.575C202.668 382.235 203.358 382.065 204.138 382.065C204.918 382.065 205.603 382.235 206.193 382.575C206.793 382.905 207.253 383.375 207.573 383.985C207.903 384.595 208.068 385.3 208.068 386.1C208.068 386.91 207.903 387.63 207.573 388.26C207.253 388.88 206.793 389.365 206.193 389.715C205.603 390.055 204.923 390.225 204.153 390.225ZM204.138 388.395C204.678 388.395 205.108 388.19 205.428 387.78C205.758 387.36 205.923 386.81 205.923 386.13C205.923 385.45 205.758 384.91 205.428 384.51C205.108 384.1 204.678 383.895 204.138 383.895C203.598 383.895 203.163 384.1 202.833 384.51C202.513 384.91 202.353 385.45 202.353 386.13C202.353 386.81 202.513 387.36 202.833 387.78C203.163 388.19 203.598 388.395 204.138 388.395ZM208.998 388.185H210.363V380.85H209.073V379.05H212.478V388.185H213.843V390H208.998V388.185ZM218.701 390.225C217.451 390.225 216.466 389.865 215.746 389.145C215.036 388.425 214.681 387.425 214.681 386.145C214.681 385.315 214.836 384.595 215.146 383.985C215.456 383.365 215.891 382.89 216.451 382.56C217.021 382.23 217.686 382.065 218.446 382.065C219.566 382.065 220.426 382.425 221.026 383.145C221.626 383.865 221.926 384.905 221.926 386.265C221.926 386.495 221.921 386.665 221.911 386.775H216.811C216.911 387.305 217.141 387.71 217.501 387.99C217.861 388.26 218.346 388.395 218.956 388.395C219.326 388.395 219.711 388.35 220.111 388.26C220.511 388.16 220.861 388.03 221.161 387.87L221.506 389.565C221.106 389.775 220.661 389.935 220.171 390.045C219.691 390.165 219.201 390.225 218.701 390.225ZM219.901 385.185C219.871 384.755 219.721 384.415 219.451 384.165C219.181 383.905 218.821 383.775 218.371 383.775C217.941 383.775 217.586 383.9 217.306 384.15C217.036 384.4 216.866 384.745 216.796 385.185H219.901Z" fill="#68EDFF"/>
<path d="M171 391.5H222.526V392.25H171V391.5Z" fill="#68EDFF"/>
<path d="M360 147C360 145.343 358.657 144 357 144H303C301.343 144 300 145.343 300 147V163C300 164.657 301.343 166 303 166H357C358.657 166 360 164.657 360 163V147Z" fill="#E58718"/>
<g filter="url(#filter1_d)">
<path d="M313.198 159.012C312.63 159.012 312.206 159.008 311.926 159V151.008C312.27 151 312.778 150.996 313.45 150.996C314.13 150.996 314.638 151 314.974 151.008C315.758 151.016 316.438 151.176 317.014 151.488C317.598 151.792 318.046 152.228 318.358 152.796C318.678 153.364 318.838 154.028 318.838 154.788C318.838 155.62 318.654 156.352 318.286 156.984C317.926 157.616 317.414 158.108 316.75 158.46C316.094 158.812 315.33 158.992 314.458 159C314.178 159.008 313.758 159.012 313.198 159.012ZM314.446 157.488C315.254 157.488 315.89 157.252 316.354 156.78C316.818 156.308 317.05 155.66 317.05 154.836C317.05 154.092 316.85 153.52 316.45 153.12C316.058 152.72 315.49 152.52 314.746 152.52H313.666V157.488H314.446ZM323.102 159.18C322.102 159.18 321.314 158.892 320.738 158.316C320.17 157.74 319.886 156.94 319.886 155.916C319.886 155.252 320.01 154.676 320.258 154.188C320.506 153.692 320.854 153.312 321.302 153.048C321.758 152.784 322.29 152.652 322.898 152.652C323.794 152.652 324.482 152.94 324.962 153.516C325.442 154.092 325.682 154.924 325.682 156.012C325.682 156.196 325.678 156.332 325.67 156.42H321.59C321.67 156.844 321.854 157.168 322.142 157.392C322.43 157.608 322.818 157.716 323.306 157.716C323.602 157.716 323.91 157.68 324.23 157.608C324.55 157.528 324.83 157.424 325.07 157.296L325.346 158.652C325.026 158.82 324.67 158.948 324.278 159.036C323.894 159.132 323.502 159.18 323.102 159.18ZM324.062 155.148C324.038 154.804 323.918 154.532 323.702 154.332C323.486 154.124 323.198 154.02 322.838 154.02C322.494 154.02 322.21 154.12 321.986 154.32C321.77 154.52 321.634 154.796 321.578 155.148H324.062ZM326.555 157.548H327.647V151.68H326.615V150.24H329.339V157.548H330.431V159H326.555V157.548ZM334.317 159.18C333.317 159.18 332.529 158.892 331.953 158.316C331.385 157.74 331.101 156.94 331.101 155.916C331.101 155.252 331.225 154.676 331.473 154.188C331.721 153.692 332.069 153.312 332.517 153.048C332.973 152.784 333.505 152.652 334.113 152.652C335.009 152.652 335.697 152.94 336.177 153.516C336.657 154.092 336.897 154.924 336.897 156.012C336.897 156.196 336.893 156.332 336.885 156.42H332.805C332.885 156.844 333.069 157.168 333.357 157.392C333.645 157.608 334.033 157.716 334.521 157.716C334.817 157.716 335.125 157.68 335.445 157.608C335.765 157.528 336.045 157.424 336.285 157.296L336.561 158.652C336.241 158.82 335.885 158.948 335.493 159.036C335.109 159.132 334.717 159.18 334.317 159.18ZM335.277 155.148C335.253 154.804 335.133 154.532 334.917 154.332C334.701 154.124 334.413 154.02 334.053 154.02C333.709 154.02 333.425 154.12 333.201 154.32C332.985 154.52 332.849 154.796 332.793 155.148H335.277ZM340.431 159.18C339.855 159.18 339.407 159.036 339.087 158.748C338.775 158.452 338.619 158.036 338.619 157.5V154.272H337.659V152.82H338.619V151.5C339.187 151.404 339.747 151.332 340.299 151.284V152.82H341.859V154.272H340.299V157.188C340.299 157.356 340.347 157.484 340.443 157.572C340.547 157.66 340.691 157.704 340.875 157.704C341.099 157.704 341.355 157.652 341.643 157.548L342.015 158.82C341.503 159.06 340.975 159.18 340.431 159.18ZM345.837 159.18C344.837 159.18 344.049 158.892 343.473 158.316C342.905 157.74 342.621 156.94 342.621 155.916C342.621 155.252 342.745 154.676 342.993 154.188C343.241 153.692 343.589 153.312 344.037 153.048C344.493 152.784 345.025 152.652 345.633 152.652C346.529 152.652 347.217 152.94 347.697 153.516C348.177 154.092 348.417 154.924 348.417 156.012C348.417 156.196 348.413 156.332 348.405 156.42H344.325C344.405 156.844 344.589 157.168 344.877 157.392C345.165 157.608 345.553 157.716 346.041 157.716C346.337 157.716 346.645 157.68 346.965 157.608C347.285 157.528 347.565 157.424 347.805 157.296L348.081 158.652C347.761 158.82 347.405 158.948 347.013 159.036C346.629 159.132 346.237 159.18 345.837 159.18ZM346.797 155.148C346.773 154.804 346.653 154.532 346.437 154.332C346.221 154.124 345.933 154.02 345.573 154.02C345.229 154.02 344.945 154.12 344.721 154.32C344.505 154.52 344.369 154.796 344.313 155.148H346.797Z" fill="white"/>
</g>
<path d="M360 203C360 201.343 358.657 200 357 200H303C301.343 200 300 201.343 300 203V219C300 220.657 301.343 222 303 222H357C358.657 222 360 220.657 360 219V203Z" fill="#E58718"/>
<g filter="url(#filter2_d)">
<path d="M313.198 215.012C312.63 215.012 312.206 215.008 311.926 215V207.008C312.27 207 312.778 206.996 313.45 206.996C314.13 206.996 314.638 207 314.974 207.008C315.758 207.016 316.438 207.176 317.014 207.488C317.598 207.792 318.046 208.228 318.358 208.796C318.678 209.364 318.838 210.028 318.838 210.788C318.838 211.62 318.654 212.352 318.286 212.984C317.926 213.616 317.414 214.108 316.75 214.46C316.094 214.812 315.33 214.992 314.458 215C314.178 215.008 313.758 215.012 313.198 215.012ZM314.446 213.488C315.254 213.488 315.89 213.252 316.354 212.78C316.818 212.308 317.05 211.66 317.05 210.836C317.05 210.092 316.85 209.52 316.45 209.12C316.058 208.72 315.49 208.52 314.746 208.52H313.666V213.488H314.446ZM323.102 215.18C322.102 215.18 321.314 214.892 320.738 214.316C320.17 213.74 319.886 212.94 319.886 211.916C319.886 211.252 320.01 210.676 320.258 210.188C320.506 209.692 320.854 209.312 321.302 209.048C321.758 208.784 322.29 208.652 322.898 208.652C323.794 208.652 324.482 208.94 324.962 209.516C325.442 210.092 325.682 210.924 325.682 212.012C325.682 212.196 325.678 212.332 325.67 212.42H321.59C321.67 212.844 321.854 213.168 322.142 213.392C322.43 213.608 322.818 213.716 323.306 213.716C323.602 213.716 323.91 213.68 324.23 213.608C324.55 213.528 324.83 213.424 325.07 213.296L325.346 214.652C325.026 214.82 324.67 214.948 324.278 215.036C323.894 215.132 323.502 215.18 323.102 215.18ZM324.062 211.148C324.038 210.804 323.918 210.532 323.702 210.332C323.486 210.124 323.198 210.02 322.838 210.02C322.494 210.02 322.21 210.12 321.986 210.32C321.77 210.52 321.634 210.796 321.578 211.148H324.062ZM326.555 213.548H327.647V207.68H326.615V206.24H329.339V213.548H330.431V215H326.555V213.548ZM334.317 215.18C333.317 215.18 332.529 214.892 331.953 214.316C331.385 213.74 331.101 212.94 331.101 211.916C331.101 211.252 331.225 210.676 331.473 210.188C331.721 209.692 332.069 209.312 332.517 209.048C332.973 208.784 333.505 208.652 334.113 208.652C335.009 208.652 335.697 208.94 336.177 209.516C336.657 210.092 336.897 210.924 336.897 212.012C336.897 212.196 336.893 212.332 336.885 212.42H332.805C332.885 212.844 333.069 213.168 333.357 213.392C333.645 213.608 334.033 213.716 334.521 213.716C334.817 213.716 335.125 213.68 335.445 213.608C335.765 213.528 336.045 213.424 336.285 213.296L336.561 214.652C336.241 214.82 335.885 214.948 335.493 215.036C335.109 215.132 334.717 215.18 334.317 215.18ZM335.277 211.148C335.253 210.804 335.133 210.532 334.917 210.332C334.701 210.124 334.413 210.02 334.053 210.02C333.709 210.02 333.425 210.12 333.201 210.32C332.985 210.52 332.849 210.796 332.793 211.148H335.277ZM340.431 215.18C339.855 215.18 339.407 215.036 339.087 214.748C338.775 214.452 338.619 214.036 338.619 213.5V210.272H337.659V208.82H338.619V207.5C339.187 207.404 339.747 207.332 340.299 207.284V208.82H341.859V210.272H340.299V213.188C340.299 213.356 340.347 213.484 340.443 213.572C340.547 213.66 340.691 213.704 340.875 213.704C341.099 213.704 341.355 213.652 341.643 213.548L342.015 214.82C341.503 215.06 340.975 215.18 340.431 215.18ZM345.837 215.18C344.837 215.18 344.049 214.892 343.473 214.316C342.905 213.74 342.621 212.94 342.621 211.916C342.621 211.252 342.745 210.676 342.993 210.188C343.241 209.692 343.589 209.312 344.037 209.048C344.493 208.784 345.025 208.652 345.633 208.652C346.529 208.652 347.217 208.94 347.697 209.516C348.177 210.092 348.417 210.924 348.417 212.012C348.417 212.196 348.413 212.332 348.405 212.42H344.325C344.405 212.844 344.589 213.168 344.877 213.392C345.165 213.608 345.553 213.716 346.041 213.716C346.337 213.716 346.645 213.68 346.965 213.608C347.285 213.528 347.565 213.424 347.805 213.296L348.081 214.652C347.761 214.82 347.405 214.948 347.013 215.036C346.629 215.132 346.237 215.18 345.837 215.18ZM346.797 211.148C346.773 210.804 346.653 210.532 346.437 210.332C346.221 210.124 345.933 210.02 345.573 210.02C345.229 210.02 344.945 210.12 344.721 210.32C344.505 210.52 344.369 210.796 344.313 211.148H346.797Z" fill="white"/>
</g>
<path d="M360 263C360 261.343 358.657 260 357 260H303C301.343 260 300 261.343 300 263V279C300 280.657 301.343 282 303 282H357C358.657 282 360 280.657 360 279V263Z" fill="#E58718"/>
<g filter="url(#filter3_d)">
<path d="M313.198 275.012C312.63 275.012 312.206 275.008 311.926 275V267.008C312.27 267 312.778 266.996 313.45 266.996C314.13 266.996 314.638 267 314.974 267.008C315.758 267.016 316.438 267.176 317.014 267.488C317.598 267.792 318.046 268.228 318.358 268.796C318.678 269.364 318.838 270.028 318.838 270.788C318.838 271.62 318.654 272.352 318.286 272.984C317.926 273.616 317.414 274.108 316.75 274.46C316.094 274.812 315.33 274.992 314.458 275C314.178 275.008 313.758 275.012 313.198 275.012ZM314.446 273.488C315.254 273.488 315.89 273.252 316.354 272.78C316.818 272.308 317.05 271.66 317.05 270.836C317.05 270.092 316.85 269.52 316.45 269.12C316.058 268.72 315.49 268.52 314.746 268.52H313.666V273.488H314.446ZM323.102 275.18C322.102 275.18 321.314 274.892 320.738 274.316C320.17 273.74 319.886 272.94 319.886 271.916C319.886 271.252 320.01 270.676 320.258 270.188C320.506 269.692 320.854 269.312 321.302 269.048C321.758 268.784 322.29 268.652 322.898 268.652C323.794 268.652 324.482 268.94 324.962 269.516C325.442 270.092 325.682 270.924 325.682 272.012C325.682 272.196 325.678 272.332 325.67 272.42H321.59C321.67 272.844 321.854 273.168 322.142 273.392C322.43 273.608 322.818 273.716 323.306 273.716C323.602 273.716 323.91 273.68 324.23 273.608C324.55 273.528 324.83 273.424 325.07 273.296L325.346 274.652C325.026 274.82 324.67 274.948 324.278 275.036C323.894 275.132 323.502 275.18 323.102 275.18ZM324.062 271.148C324.038 270.804 323.918 270.532 323.702 270.332C323.486 270.124 323.198 270.02 322.838 270.02C322.494 270.02 322.21 270.12 321.986 270.32C321.77 270.52 321.634 270.796 321.578 271.148H324.062ZM326.555 273.548H327.647V267.68H326.615V266.24H329.339V273.548H330.431V275H326.555V273.548ZM334.317 275.18C333.317 275.18 332.529 274.892 331.953 274.316C331.385 273.74 331.101 272.94 331.101 271.916C331.101 271.252 331.225 270.676 331.473 270.188C331.721 269.692 332.069 269.312 332.517 269.048C332.973 268.784 333.505 268.652 334.113 268.652C335.009 268.652 335.697 268.94 336.177 269.516C336.657 270.092 336.897 270.924 336.897 272.012C336.897 272.196 336.893 272.332 336.885 272.42H332.805C332.885 272.844 333.069 273.168 333.357 273.392C333.645 273.608 334.033 273.716 334.521 273.716C334.817 273.716 335.125 273.68 335.445 273.608C335.765 273.528 336.045 273.424 336.285 273.296L336.561 274.652C336.241 274.82 335.885 274.948 335.493 275.036C335.109 275.132 334.717 275.18 334.317 275.18ZM335.277 271.148C335.253 270.804 335.133 270.532 334.917 270.332C334.701 270.124 334.413 270.02 334.053 270.02C333.709 270.02 333.425 270.12 333.201 270.32C332.985 270.52 332.849 270.796 332.793 271.148H335.277ZM340.431 275.18C339.855 275.18 339.407 275.036 339.087 274.748C338.775 274.452 338.619 274.036 338.619 273.5V270.272H337.659V268.82H338.619V267.5C339.187 267.404 339.747 267.332 340.299 267.284V268.82H341.859V270.272H340.299V273.188C340.299 273.356 340.347 273.484 340.443 273.572C340.547 273.66 340.691 273.704 340.875 273.704C341.099 273.704 341.355 273.652 341.643 273.548L342.015 274.82C341.503 275.06 340.975 275.18 340.431 275.18ZM345.837 275.18C344.837 275.18 344.049 274.892 343.473 274.316C342.905 273.74 342.621 272.94 342.621 271.916C342.621 271.252 342.745 270.676 342.993 270.188C343.241 269.692 343.589 269.312 344.037 269.048C344.493 268.784 345.025 268.652 345.633 268.652C346.529 268.652 347.217 268.94 347.697 269.516C348.177 270.092 348.417 270.924 348.417 272.012C348.417 272.196 348.413 272.332 348.405 272.42H344.325C344.405 272.844 344.589 273.168 344.877 273.392C345.165 273.608 345.553 273.716 346.041 273.716C346.337 273.716 346.645 273.68 346.965 273.608C347.285 273.528 347.565 273.424 347.805 273.296L348.081 274.652C347.761 274.82 347.405 274.948 347.013 275.036C346.629 275.132 346.237 275.18 345.837 275.18ZM346.797 271.148C346.773 270.804 346.653 270.532 346.437 270.332C346.221 270.124 345.933 270.02 345.573 270.02C345.229 270.02 344.945 270.12 344.721 270.32C344.505 270.52 344.369 270.796 344.313 271.148H346.797Z" fill="white"/>
</g>
<path d="M360 322C360 320.343 358.657 319 357 319H303C301.343 319 300 320.343 300 322V338C300 339.657 301.343 341 303 341H357C358.657 341 360 339.657 360 338V322Z" fill="#E58718"/>
<g filter="url(#filter4_d)">
<path d="M313.198 334.012C312.63 334.012 312.206 334.008 311.926 334V326.008C312.27 326 312.778 325.996 313.45 325.996C314.13 325.996 314.638 326 314.974 326.008C315.758 326.016 316.438 326.176 317.014 326.488C317.598 326.792 318.046 327.228 318.358 327.796C318.678 328.364 318.838 329.028 318.838 329.788C318.838 330.62 318.654 331.352 318.286 331.984C317.926 332.616 317.414 333.108 316.75 333.46C316.094 333.812 315.33 333.992 314.458 334C314.178 334.008 313.758 334.012 313.198 334.012ZM314.446 332.488C315.254 332.488 315.89 332.252 316.354 331.78C316.818 331.308 317.05 330.66 317.05 329.836C317.05 329.092 316.85 328.52 316.45 328.12C316.058 327.72 315.49 327.52 314.746 327.52H313.666V332.488H314.446ZM323.102 334.18C322.102 334.18 321.314 333.892 320.738 333.316C320.17 332.74 319.886 331.94 319.886 330.916C319.886 330.252 320.01 329.676 320.258 329.188C320.506 328.692 320.854 328.312 321.302 328.048C321.758 327.784 322.29 327.652 322.898 327.652C323.794 327.652 324.482 327.94 324.962 328.516C325.442 329.092 325.682 329.924 325.682 331.012C325.682 331.196 325.678 331.332 325.67 331.42H321.59C321.67 331.844 321.854 332.168 322.142 332.392C322.43 332.608 322.818 332.716 323.306 332.716C323.602 332.716 323.91 332.68 324.23 332.608C324.55 332.528 324.83 332.424 325.07 332.296L325.346 333.652C325.026 333.82 324.67 333.948 324.278 334.036C323.894 334.132 323.502 334.18 323.102 334.18ZM324.062 330.148C324.038 329.804 323.918 329.532 323.702 329.332C323.486 329.124 323.198 329.02 322.838 329.02C322.494 329.02 322.21 329.12 321.986 329.32C321.77 329.52 321.634 329.796 321.578 330.148H324.062ZM326.555 332.548H327.647V326.68H326.615V325.24H329.339V332.548H330.431V334H326.555V332.548ZM334.317 334.18C333.317 334.18 332.529 333.892 331.953 333.316C331.385 332.74 331.101 331.94 331.101 330.916C331.101 330.252 331.225 329.676 331.473 329.188C331.721 328.692 332.069 328.312 332.517 328.048C332.973 327.784 333.505 327.652 334.113 327.652C335.009 327.652 335.697 327.94 336.177 328.516C336.657 329.092 336.897 329.924 336.897 331.012C336.897 331.196 336.893 331.332 336.885 331.42H332.805C332.885 331.844 333.069 332.168 333.357 332.392C333.645 332.608 334.033 332.716 334.521 332.716C334.817 332.716 335.125 332.68 335.445 332.608C335.765 332.528 336.045 332.424 336.285 332.296L336.561 333.652C336.241 333.82 335.885 333.948 335.493 334.036C335.109 334.132 334.717 334.18 334.317 334.18ZM335.277 330.148C335.253 329.804 335.133 329.532 334.917 329.332C334.701 329.124 334.413 329.02 334.053 329.02C333.709 329.02 333.425 329.12 333.201 329.32C332.985 329.52 332.849 329.796 332.793 330.148H335.277ZM340.431 334.18C339.855 334.18 339.407 334.036 339.087 333.748C338.775 333.452 338.619 333.036 338.619 332.5V329.272H337.659V327.82H338.619V326.5C339.187 326.404 339.747 326.332 340.299 326.284V327.82H341.859V329.272H340.299V332.188C340.299 332.356 340.347 332.484 340.443 332.572C340.547 332.66 340.691 332.704 340.875 332.704C341.099 332.704 341.355 332.652 341.643 332.548L342.015 333.82C341.503 334.06 340.975 334.18 340.431 334.18ZM345.837 334.18C344.837 334.18 344.049 333.892 343.473 333.316C342.905 332.74 342.621 331.94 342.621 330.916C342.621 330.252 342.745 329.676 342.993 329.188C343.241 328.692 343.589 328.312 344.037 328.048C344.493 327.784 345.025 327.652 345.633 327.652C346.529 327.652 347.217 327.94 347.697 328.516C348.177 329.092 348.417 329.924 348.417 331.012C348.417 331.196 348.413 331.332 348.405 331.42H344.325C344.405 331.844 344.589 332.168 344.877 332.392C345.165 332.608 345.553 332.716 346.041 332.716C346.337 332.716 346.645 332.68 346.965 332.608C347.285 332.528 347.565 332.424 347.805 332.296L348.081 333.652C347.761 333.82 347.405 333.948 347.013 334.036C346.629 334.132 346.237 334.18 345.837 334.18ZM346.797 330.148C346.773 329.804 346.653 329.532 346.437 329.332C346.221 329.124 345.933 329.02 345.573 329.02C345.229 329.02 344.945 329.12 344.721 329.32C344.505 329.52 344.369 329.796 344.313 330.148H346.797Z" fill="white"/>
</g>
<path d="M360 378C360 376.343 358.657 375 357 375H303C301.343 375 300 376.343 300 378V394C300 395.657 301.343 397 303 397H357C358.657 397 360 395.657 360 394V378Z" fill="#E58718"/>
<g filter="url(#filter5_d)">
<path d="M313.198 390.012C312.63 390.012 312.206 390.008 311.926 390V382.008C312.27 382 312.778 381.996 313.45 381.996C314.13 381.996 314.638 382 314.974 382.008C315.758 382.016 316.438 382.176 317.014 382.488C317.598 382.792 318.046 383.228 318.358 383.796C318.678 384.364 318.838 385.028 318.838 385.788C318.838 386.62 318.654 387.352 318.286 387.984C317.926 388.616 317.414 389.108 316.75 389.46C316.094 389.812 315.33 389.992 314.458 390C314.178 390.008 313.758 390.012 313.198 390.012ZM314.446 388.488C315.254 388.488 315.89 388.252 316.354 387.78C316.818 387.308 317.05 386.66 317.05 385.836C317.05 385.092 316.85 384.52 316.45 384.12C316.058 383.72 315.49 383.52 314.746 383.52H313.666V388.488H314.446ZM323.102 390.18C322.102 390.18 321.314 389.892 320.738 389.316C320.17 388.74 319.886 387.94 319.886 386.916C319.886 386.252 320.01 385.676 320.258 385.188C320.506 384.692 320.854 384.312 321.302 384.048C321.758 383.784 322.29 383.652 322.898 383.652C323.794 383.652 324.482 383.94 324.962 384.516C325.442 385.092 325.682 385.924 325.682 387.012C325.682 387.196 325.678 387.332 325.67 387.42H321.59C321.67 387.844 321.854 388.168 322.142 388.392C322.43 388.608 322.818 388.716 323.306 388.716C323.602 388.716 323.91 388.68 324.23 388.608C324.55 388.528 324.83 388.424 325.07 388.296L325.346 389.652C325.026 389.82 324.67 389.948 324.278 390.036C323.894 390.132 323.502 390.18 323.102 390.18ZM324.062 386.148C324.038 385.804 323.918 385.532 323.702 385.332C323.486 385.124 323.198 385.02 322.838 385.02C322.494 385.02 322.21 385.12 321.986 385.32C321.77 385.52 321.634 385.796 321.578 386.148H324.062ZM326.555 388.548H327.647V382.68H326.615V381.24H329.339V388.548H330.431V390H326.555V388.548ZM334.317 390.18C333.317 390.18 332.529 389.892 331.953 389.316C331.385 388.74 331.101 387.94 331.101 386.916C331.101 386.252 331.225 385.676 331.473 385.188C331.721 384.692 332.069 384.312 332.517 384.048C332.973 383.784 333.505 383.652 334.113 383.652C335.009 383.652 335.697 383.94 336.177 384.516C336.657 385.092 336.897 385.924 336.897 387.012C336.897 387.196 336.893 387.332 336.885 387.42H332.805C332.885 387.844 333.069 388.168 333.357 388.392C333.645 388.608 334.033 388.716 334.521 388.716C334.817 388.716 335.125 388.68 335.445 388.608C335.765 388.528 336.045 388.424 336.285 388.296L336.561 389.652C336.241 389.82 335.885 389.948 335.493 390.036C335.109 390.132 334.717 390.18 334.317 390.18ZM335.277 386.148C335.253 385.804 335.133 385.532 334.917 385.332C334.701 385.124 334.413 385.02 334.053 385.02C333.709 385.02 333.425 385.12 333.201 385.32C332.985 385.52 332.849 385.796 332.793 386.148H335.277ZM340.431 390.18C339.855 390.18 339.407 390.036 339.087 389.748C338.775 389.452 338.619 389.036 338.619 388.5V385.272H337.659V383.82H338.619V382.5C339.187 382.404 339.747 382.332 340.299 382.284V383.82H341.859V385.272H340.299V388.188C340.299 388.356 340.347 388.484 340.443 388.572C340.547 388.66 340.691 388.704 340.875 388.704C341.099 388.704 341.355 388.652 341.643 388.548L342.015 389.82C341.503 390.06 340.975 390.18 340.431 390.18ZM345.837 390.18C344.837 390.18 344.049 389.892 343.473 389.316C342.905 388.74 342.621 387.94 342.621 386.916C342.621 386.252 342.745 385.676 342.993 385.188C343.241 384.692 343.589 384.312 344.037 384.048C344.493 383.784 345.025 383.652 345.633 383.652C346.529 383.652 347.217 383.94 347.697 384.516C348.177 385.092 348.417 385.924 348.417 387.012C348.417 387.196 348.413 387.332 348.405 387.42H344.325C344.405 387.844 344.589 388.168 344.877 388.392C345.165 388.608 345.553 388.716 346.041 388.716C346.337 388.716 346.645 388.68 346.965 388.608C347.285 388.528 347.565 388.424 347.805 388.296L348.081 389.652C347.761 389.82 347.405 389.948 347.013 390.036C346.629 390.132 346.237 390.18 345.837 390.18ZM346.797 386.148C346.773 385.804 346.653 385.532 346.437 385.332C346.221 385.124 345.933 385.02 345.573 385.02C345.229 385.02 344.945 385.12 344.721 385.32C344.505 385.52 344.369 385.796 344.313 386.148H346.797Z" fill="white"/>
</g>
<defs>
<filter id="filter0_d" x="0" y="0" width="381" height="427" filterUnits="userSpaceOnUse" color-interpolation-filters="sRGB">
<feFlood flood-opacity="0" result="BackgroundImageFix"/>
<feColorMatrix in="SourceAlpha" type="matrix" values="0 0 0 0 0 0 0 0 0 0 0 0 0 0 0 0 0 0 127 0" result="hardAlpha"/>
<feMorphology radius="1" operator="erode" in="SourceAlpha" result="effect1_dropShadow"/>
<feOffset dx="-7" dy="6"/>
<feGaussianBlur stdDeviation="2"/>
<feColorMatrix type="matrix" values="0 0 0 0 0.108333 0 0 0 0 0.108333 0 0 0 0 0.108333 0 0 0 0.58 0"/>
<feBlend mode="normal" in2="BackgroundImageFix" result="effect1_dropShadow"/>
<feBlend mode="normal" in="SourceGraphic" in2="effect1_dropShadow" result="shape"/>
</filter>
<filter id="filter1_d" x="307.926" y="148.24" width="44.491" height="16.94" filterUnits="userSpaceOnUse" color-interpolation-filters="sRGB">
<feFlood flood-opacity="0" result="BackgroundImageFix"/>
<feColorMatrix in="SourceAlpha" type="matrix" values="0 0 0 0 0 0 0 0 0 0 0 0 0 0 0 0 0 0 127 0" result="hardAlpha"/>
<feOffset dy="2"/>
<feGaussianBlur stdDeviation="2"/>
<feColorMatrix type="matrix" values="0 0 0 0 0 0 0 0 0 0 0 0 0 0 0 0 0 0 0.25 0"/>
<feBlend mode="normal" in2="BackgroundImageFix" result="effect1_dropShadow"/>
<feBlend mode="normal" in="SourceGraphic" in2="effect1_dropShadow" result="shape"/>
</filter>
<filter id="filter2_d" x="307.926" y="204.24" width="44.491" height="16.94" filterUnits="userSpaceOnUse" color-interpolation-filters="sRGB">
<feFlood flood-opacity="0" result="BackgroundImageFix"/>
<feColorMatrix in="SourceAlpha" type="matrix" values="0 0 0 0 0 0 0 0 0 0 0 0 0 0 0 0 0 0 127 0" result="hardAlpha"/>
<feOffset dy="2"/>
<feGaussianBlur stdDeviation="2"/>
<feColorMatrix type="matrix" values="0 0 0 0 0 0 0 0 0 0 0 0 0 0 0 0 0 0 0.25 0"/>
<feBlend mode="normal" in2="BackgroundImageFix" result="effect1_dropShadow"/>
<feBlend mode="normal" in="SourceGraphic" in2="effect1_dropShadow" result="shape"/>
</filter>
<filter id="filter3_d" x="307.926" y="264.24" width="44.491" height="16.94" filterUnits="userSpaceOnUse" color-interpolation-filters="sRGB">
<feFlood flood-opacity="0" result="BackgroundImageFix"/>
<feColorMatrix in="SourceAlpha" type="matrix" values="0 0 0 0 0 0 0 0 0 0 0 0 0 0 0 0 0 0 127 0" result="hardAlpha"/>
<feOffset dy="2"/>
<feGaussianBlur stdDeviation="2"/>
<feColorMatrix type="matrix" values="0 0 0 0 0 0 0 0 0 0 0 0 0 0 0 0 0 0 0.25 0"/>
<feBlend mode="normal" in2="BackgroundImageFix" result="effect1_dropShadow"/>
<feBlend mode="normal" in="SourceGraphic" in2="effect1_dropShadow" result="shape"/>
</filter>
<filter id="filter4_d" x="307.926" y="323.24" width="44.491" height="16.94" filterUnits="userSpaceOnUse" color-interpolation-filters="sRGB">
<feFlood flood-opacity="0" result="BackgroundImageFix"/>
<feColorMatrix in="SourceAlpha" type="matrix" values="0 0 0 0 0 0 0 0 0 0 0 0 0 0 0 0 0 0 127 0" result="hardAlpha"/>
<feOffset dy="2"/>
<feGaussianBlur stdDeviation="2"/>
<feColorMatrix type="matrix" values="0 0 0 0 0 0 0 0 0 0 0 0 0 0 0 0 0 0 0.25 0"/>
<feBlend mode="normal" in2="BackgroundImageFix" result="effect1_dropShadow"/>
<feBlend mode="normal" in="SourceGraphic" in2="effect1_dropShadow" result="shape"/>
</filter>
<filter id="filter5_d" x="307.926" y="379.24" width="44.491" height="16.94" filterUnits="userSpaceOnUse" color-interpolation-filters="sRGB">
<feFlood flood-opacity="0" result="BackgroundImageFix"/>
<feColorMatrix in="SourceAlpha" type="matrix" values="0 0 0 0 0 0 0 0 0 0 0 0 0 0 0 0 0 0 127 0" result="hardAlpha"/>
<feOffset dy="2"/>
<feGaussianBlur stdDeviation="2"/>
<feColorMatrix type="matrix" values="0 0 0 0 0 0 0 0 0 0 0 0 0 0 0 0 0 0 0.25 0"/>
<feBlend mode="normal" in2="BackgroundImageFix" result="effect1_dropShadow"/>
<feBlend mode="normal" in="SourceGraphic" in2="effect1_dropShadow" result="shape"/>
</filter>
</defs>
</svg>
